<svg width="15" height="15" viewBox="0 0 15 15" fill="none" xmlns="http://www.w3.org/2000/svg">
<g clip-path="url(#clip0_20_116)">
<path fill-rule="evenodd" clip-rule="evenodd" d="M6.43731 0.416748C5.47723 0.41683 4.53109 0.646506 3.67783 1.08661C2.82456 1.52672 2.08892 2.1645 1.53227 2.94674C0.975624 3.72898 0.614112 4.63299 0.477898 5.58336C0.341685 6.53373 0.434719 7.50289 0.74924 8.41C1.06376 9.3171 1.59065 10.1358 2.28594 10.7979C2.98123 11.4599 3.82477 11.9461 4.74618 12.2159C5.66758 12.4856 6.64014 12.5311 7.5827 12.3486C8.52527 12.166 9.4105 11.7607 10.1646 11.1664L12.7514 13.7532C12.885 13.8823 13.0639 13.9537 13.2496 13.9521C13.4354 13.9504 13.613 13.876 13.7444 13.7446C13.8757 13.6133 13.9502 13.4356 13.9518 13.2499C13.9534 13.0642 13.882 12.8853 13.753 12.7517L11.1661 10.1648C11.866 9.27702 12.3017 8.21012 12.4235 7.08622C12.5453 5.96233 12.3482 4.82685 11.8548 3.80973C11.3614 2.79262 10.5916 1.93496 9.63353 1.33491C8.67545 0.734865 7.56779 0.416672 6.43731 0.416748ZM1.83315 6.43758C1.83315 5.21648 2.31823 4.04539 3.18168 3.18194C4.04512 2.3185 5.21621 1.83341 6.43731 1.83341C7.65841 1.83341 8.8295 2.3185 9.69295 3.18194C10.5564 4.04539 11.0415 5.21648 11.0415 6.43758C11.0415 7.65868 10.5564 8.82977 9.69295 9.69322C8.8295 10.5567 7.65841 11.0417 6.43731 11.0417C5.21621 11.0417 4.04512 10.5567 3.18168 9.69322C2.31823 8.82977 1.83315 7.65868 1.83315 6.43758Z" fill="#6E16FF"/>
</g>
<defs>
<clipPath id="clip0_20_116">
<rect width="15" height="15" fill="white"/>
</clipPath>
</defs>
</svg>
