<svg width="34" height="38" viewBox="0 0 34 38" fill="none" xmlns="http://www.w3.org/2000/svg">
<path fill-rule="evenodd" clip-rule="evenodd" d="M1.21232 24.561C1.21232 27.3522 1.47681 29.2706 2.55688 31.6415C2.9316 32.4713 4.51864 35.7691 5.69789 35.7691C6.48039 35.7691 6.98735 35.2518 6.98735 34.4328C6.98735 34.0771 6.61264 33.6568 6.42528 33.4197C6.19384 33.1072 5.98444 32.827 5.78606 32.4929C4.89335 31.038 4.34231 29.7448 3.96759 28.0312C3.08591 24.0437 4.08881 20.0346 6.55753 16.8015C7.72577 15.2711 9.29076 13.9671 11.0541 13.1049C14.0849 11.6393 17.2369 11.3052 20.5543 12.1781C22.7254 12.7601 25.4366 14.4736 26.7592 16.1333C26.9245 16.3381 26.9906 16.3919 27.1449 16.5752L28.1588 18.0301C28.5997 18.7414 28.9634 19.4311 29.294 20.2609C30.0214 22.0499 31.2006 26.3823 29.4703 28.2898C27.8392 30.1004 24.8084 29.6262 23.8606 27.2768C23.3096 25.9081 23.9818 25.0783 23.1773 22.8259C21.5352 18.1809 15.198 17.1571 12.2885 20.692C11.7925 21.2955 11.2635 22.0176 10.977 22.8259C10.8117 23.3001 10.6904 23.6126 10.5802 24.1514C10.3047 25.5201 10.3708 26.7595 10.7676 28.0635C11.1974 29.4646 11.7705 30.6608 12.564 31.8678C13.1261 32.7085 13.5008 33.1288 14.14 33.8185C14.9887 34.7669 15.0107 34.7669 15.9254 35.5644C17.0606 36.5559 19.2097 38 20.8739 38C21.9209 38 22.483 36.793 21.7335 35.9739C21.1605 35.3488 20.8849 36.0278 19.0224 34.8315C17.9533 34.1526 17.0827 33.3982 16.223 32.5252L14.5588 30.4453C13.0159 28.0312 12.035 25.0352 13.9747 22.4918C15.2642 20.8213 17.4353 20.5519 19.2318 21.6404C19.7167 21.9421 20.2126 22.4595 20.4882 22.9336C21.954 25.4339 19.9702 27.5031 23.1663 30.4129C25.3374 32.3851 28.8862 32.2774 31.0243 30.1866C32.6444 28.6024 32.7877 27.1798 32.7877 25.0783C32.7877 21.6512 31.41 18.2995 29.5585 15.7022L28.2139 14.118C27.5086 13.4282 26.9575 12.8894 26.142 12.2859C25.3925 11.7255 24.588 11.2405 23.7063 10.8094C19.6616 8.82644 14.4817 8.72944 10.4259 10.7124C9.96304 10.928 9.59935 11.1327 9.18055 11.3483L7.41717 12.523C6.8551 13.0079 5.87423 13.7731 5.42236 14.3551C4.32026 15.7453 3.5598 16.4458 2.71117 18.3857C2.31441 19.2802 1.96175 20.1532 1.70827 21.177C1.45478 22.1469 1.21232 23.4294 1.21232 24.561ZM25.3485 35.6937C26.8363 35.6937 27.178 33.312 25.128 33.2473C23.552 33.1934 21.965 32.1049 20.929 31.038C20.411 30.5099 19.6285 29.3999 19.3089 28.764C18.9673 28.1066 18.7468 27.6756 18.5264 26.9319C18.3611 26.3607 18.1517 25.477 18.1407 24.7873C18.1296 24.2915 18.1627 24.0437 17.9313 23.7311C17.4023 23.0306 16.3553 23.0737 15.9034 23.7096C15.4074 24.4101 15.8703 26.5871 16.0908 27.3846C16.8292 30.1543 18.7027 32.5683 20.9841 34.1849C21.4801 34.5405 22.3066 34.9716 22.9018 35.198C23.5851 35.4566 24.4337 35.6937 25.3485 35.6937ZM2.04992 6.3046C2.04992 7.09133 2.49075 7.64096 3.26223 7.64096C3.96758 7.64096 4.30924 7.11288 4.73906 6.77879C7.3731 4.76348 8.68459 4.0953 11.7705 3.12536C12.0901 3.02837 12.3987 2.95293 12.7404 2.8775C13.8425 2.61885 15.8373 2.37097 17.0055 2.37097L19.1987 2.52185C19.8379 2.57573 20.7086 2.74817 21.2707 2.8775C21.9209 3.02837 22.483 3.17924 23.1001 3.384C23.4528 3.49177 23.6843 3.58877 23.9818 3.70732C24.2684 3.81509 24.5549 3.91209 24.8415 4.05219C25.9767 4.58027 26.8914 5.08679 27.8833 5.75497L29.8781 7.29609C31.366 8.49234 32.6775 6.40159 31.5092 5.47476L30.0875 4.34318C28.8201 3.41635 27.5306 2.60807 26.0869 1.95067C23.4087 0.732855 20.5653 0.0969937 17.7329 0H16.234C11.5501 0.161656 6.9543 1.81055 3.2402 4.87125C2.77731 5.25922 2.04992 5.71186 2.04992 6.3046ZM0 14.021C0 15.616 1.6201 15.7669 2.25932 14.8293C2.4026 14.6353 2.46871 14.5491 2.61199 14.3551C3.92349 12.6523 4.98152 11.5746 6.74489 10.3029C12.7734 5.94896 21.1604 5.99207 27.222 10.2706L28.5556 11.3267C29.0956 11.7686 29.812 12.4152 30.2418 12.9541C30.3961 13.148 30.4843 13.1912 30.6275 13.3851C30.9361 13.7623 31.8288 15.0233 32.1154 15.2065C32.7326 15.5944 34 15.4975 34 14.021C34 13.7085 33.6253 13.2235 33.4489 13.0079C32.5673 11.8548 32.1815 11.3914 31.1345 10.3676C26.66 5.98129 20.3008 3.89053 13.9857 4.83892C13.0489 4.97902 12.1783 5.20534 11.2745 5.45322C8.18865 6.31538 5.10276 8.17982 2.89855 10.3352C2.31443 10.9064 0 13.2989 0 14.021ZM5.76401 25.1537C5.76401 26.4793 6.1718 28.1066 6.63469 29.2813C7.7919 32.2343 9.29075 34.1741 11.2194 36.5235C11.6272 37.0085 12.4318 38 12.9828 38C13.8314 38 14.4156 37.5797 14.4156 36.8145C14.4156 36.1787 13.8755 35.8338 13.589 35.4782L12.575 34.3142C11.9028 33.4952 11.2635 32.6761 10.6904 31.7816C8.50826 28.3868 7.40616 25.2507 9.08137 21.4248C9.44506 20.6166 10.2386 19.485 10.8778 18.8707C11.5831 18.1809 12.4538 17.5666 13.4126 17.114C18.317 14.8077 24.0369 17.6852 25.4256 22.8582C25.5909 23.4725 25.7232 24.2377 25.7232 25.0136C25.7232 26.975 28.4674 26.8242 28.225 24.7981C28.1037 23.8174 28.0156 23.0306 27.7951 22.1685C27.3212 20.3364 26.0648 18.2672 24.6872 16.9739C22.9789 15.3681 20.1465 13.9455 17.6888 13.9455C15.3854 13.9455 14.14 14.0425 12.013 15.0879C10.3047 15.9285 8.70665 17.3619 7.68169 18.9353C6.51345 20.7136 5.76401 22.9875 5.76401 25.1537Z" fill="white"/>
</svg>
