<svg width="20" height="24" viewBox="0 0 20 24" fill="none" xmlns="http://www.w3.org/2000/svg">
<path d="M1.6 11.4688C1.6 9.75315 2.27428 8.10779 3.47452 6.89466C4.67475 5.68153 6.30261 5 8 5C9.69739 5 11.3253 5.68153 12.5255 6.89466C13.7257 8.10779 14.4 9.75315 14.4 11.4688V15.2668L16 17.6926V21.1719H11.5112C11.3292 21.9755 10.8828 22.6928 10.2451 23.2065C9.60732 23.7202 8.81593 24 8.0004 24C7.18487 24 6.39348 23.7202 5.75572 23.2065C5.11795 22.6928 4.67157 21.9755 4.4896 21.1719H0V17.6926L1.6 15.2668V11.4688ZM6.1664 21.1719C6.3219 21.5328 6.57824 21.8399 6.90396 22.0556C7.22968 22.2713 7.6106 22.3862 8 22.3862C8.3894 22.3862 8.77032 22.2713 9.09604 22.0556C9.42176 21.8399 9.6781 21.5328 9.8336 21.1719H6.1664ZM8 6.6172C6.72696 6.6172 5.50606 7.12834 4.60589 8.03819C3.70571 8.94804 3.2 10.1821 3.2 11.4688V15.7568L1.6 18.1826V19.5548H14.4V18.1826L12.8 15.7568V11.4688C12.8 10.1821 12.2943 8.94804 11.3941 8.03819C10.4939 7.12834 9.27304 6.6172 8 6.6172Z" fill="black"/>
<circle cx="15" cy="5" r="5" fill="#00FFA3"/>
</svg>
