<svg width="22" height="22" viewBox="0 0 22 22" fill="none" xmlns="http://www.w3.org/2000/svg">
<g clip-path="url(#clip0_10_2221)">
<g clip-path="url(#clip1_10_2221)" filter="url(#filter0_d_10_2221)">
<path fill-rule="evenodd" clip-rule="evenodd" d="M7.47042 4.05902C8.35277 3.47079 9.52924 2.88255 10.7057 2.29432C10.9998 2.0002 11.5881 2.0002 11.8822 2.29432L14.5292 4.05902C16.5881 5.52961 19.2351 6.11785 18.6469 8.17667L17.7645 14.059C17.1763 18.4708 12.4704 22.0002 10.7057 22.0002C9.23512 22.0002 4.52924 17.8826 3.94101 14.3531L3.05865 8.17667C2.76454 6.11785 5.4116 5.23549 7.47042 4.05902Z" fill="#6E16FF"/>
<path d="M10.1172 7.88232V9.64703H11.8819V7.88232H10.1172ZM10.1172 16.1176V10.8235H11.8819V16.1176H10.1172Z" fill="white"/>
</g>
</g>
<defs>
<filter id="filter0_d_10_2221" x="-1" y="2" width="24" height="28" filterUnits="userSpaceOnUse" color-interpolation-filters="sRGB">
<feFlood flood-opacity="0" result="BackgroundImageFix"/>
<feColorMatrix in="SourceAlpha" type="matrix" values="0 0 0 0 0 0 0 0 0 0 0 0 0 0 0 0 0 0 127 0" result="hardAlpha"/>
<feOffset dy="4"/>
<feGaussianBlur stdDeviation="2"/>
<feComposite in2="hardAlpha" operator="out"/>
<feColorMatrix type="matrix" values="0 0 0 0 0 0 0 0 0 0 0 0 0 0 0 0 0 0 0.25 0"/>
<feBlend mode="normal" in2="BackgroundImageFix" result="effect1_dropShadow_10_2221"/>
<feBlend mode="normal" in="SourceGraphic" in2="effect1_dropShadow_10_2221" result="shape"/>
</filter>
<clipPath id="clip0_10_2221">
<rect width="22" height="22" fill="white"/>
</clipPath>
<clipPath id="clip1_10_2221">
<rect width="16" height="20" fill="white" transform="translate(3 2)"/>
</clipPath>
</defs>
</svg>
