<svg width="32" height="32" viewBox="0 0 32 32" fill="none" xmlns="http://www.w3.org/2000/svg">
<path d="M29.4109 23.345C29.4332 22.4236 28.8009 21.6756 27.9837 21.5602C26.4629 21.3591 24.9701 20.9866 23.5308 20.4482C22.9406 20.2258 22.277 20.3678 21.8225 20.818L19.9444 22.7002C19.5274 23.1178 18.8629 23.2044 18.3439 22.9087C14.4405 20.6846 11.2119 17.4491 8.99646 13.5453C8.7295 13.0745 8.81052 12.493 9.19735 12.1055L11.0706 10.2285C11.5471 9.74547 11.7029 9.01291 11.4587 8.36176C10.9268 6.93319 10.5578 5.44925 10.3603 3.94879C10.2382 3.08273 9.5181 2.46193 8.68507 2.47022H4.25004C3.79691 2.47067 3.35964 2.66397 3.04358 3.01107C2.71523 3.37156 2.55028 3.86238 2.59313 4.34141C3.05898 8.73672 4.55096 12.9591 6.95296 16.6746C9.12571 20.1011 12.0226 23.0043 15.4473 25.1848C19.1149 27.5681 23.2867 29.0554 27.6033 29.5257C28.0544 29.5666 28.5053 29.4137 28.8488 29.0978C29.2062 28.7692 29.4129 28.2958 29.4109 27.7911L29.4109 23.345ZM31.9989 27.7861C32.0036 28.9553 31.5145 30.0765 30.6444 30.8763C29.7607 31.6888 28.5663 32.0935 27.3344 31.9817C22.5743 31.4634 18.0035 29.8341 14.0006 27.2326C10.2687 24.8562 7.10692 21.6879 4.74463 17.9623C2.1424 13.9366 0.523658 9.35599 0.0167438 4.57141C-0.087719 3.41181 0.299778 2.2589 1.09063 1.39039C1.894 0.508671 3.04017 0.00129928 4.24892 0.000213561H8.67189C10.8214 -0.0209916 12.6322 1.5393 12.9268 3.6301C13.1025 4.96427 13.4281 6.27427 13.8965 7.53187C14.4659 9.04953 14.102 10.7589 12.9498 11.9265L11.7338 13.145C13.5246 16.0256 15.9414 18.4595 18.8001 20.2656L19.9534 19.1098C21.136 17.9379 22.9094 17.5588 24.478 18.1497C25.7249 18.616 27.0202 18.9392 28.351 19.1153C30.4905 19.4178 32.0432 21.2486 31.999 23.3584L31.9989 27.7861Z" fill="#3342F0"/>
</svg>
