<svg width="14" height="17" viewBox="0 0 14 17" fill="none" xmlns="http://www.w3.org/2000/svg">
<path d="M4.3006 1.89069C4.07248 1.89069 3.85371 1.99017 3.6924 2.16724C3.5311 2.34431 3.44048 2.58447 3.44048 2.83488C3.44048 3.08529 3.5311 3.32545 3.6924 3.50252C3.85371 3.67959 4.07248 3.77907 4.3006 3.77907C4.52872 3.77907 4.74749 3.67959 4.9088 3.50252C5.0701 3.32545 5.16072 3.08529 5.16072 2.83488C5.16072 2.58447 5.0701 2.34431 4.9088 2.16724C4.74749 1.99017 4.52872 1.89069 4.3006 1.89069ZM1.86646 1.89069C2.04416 1.33784 2.37371 0.859102 2.80967 0.520475C3.24563 0.181847 3.76654 0 4.3006 0C4.83466 0 5.35557 0.181847 5.79153 0.520475C6.2275 0.859102 6.55704 1.33784 6.73474 1.89069H12.9018C13.1299 1.89069 13.3487 1.99017 13.51 2.16724C13.6713 2.34431 13.7619 2.58447 13.7619 2.83488C13.7619 3.08529 13.6713 3.32545 13.51 3.50252C13.3487 3.67959 13.1299 3.77907 12.9018 3.77907H6.73474C6.55704 4.33192 6.2275 4.81066 5.79153 5.14929C5.35557 5.48791 4.83466 5.66976 4.3006 5.66976C3.76654 5.66976 3.24563 5.48791 2.80967 5.14929C2.37371 4.81066 2.04416 4.33192 1.86646 3.77907H0.86012C0.632002 3.77907 0.413227 3.67959 0.251924 3.50252C0.0906197 3.32545 0 3.08529 0 2.83488C0 2.58447 0.0906197 2.34431 0.251924 2.16724C0.413227 1.99017 0.632002 1.89069 0.86012 1.89069H1.86646ZM9.46132 7.55582C9.2332 7.55582 9.01443 7.6553 8.85313 7.83237C8.69182 8.00944 8.6012 8.2496 8.6012 8.50001C8.6012 8.75043 8.69182 8.99058 8.85313 9.16765C9.01443 9.34472 9.2332 9.4442 9.46132 9.4442C9.68944 9.4442 9.90822 9.34472 10.0695 9.16765C10.2308 8.99058 10.3214 8.75043 10.3214 8.50001C10.3214 8.2496 10.2308 8.00944 10.0695 7.83237C9.90822 7.6553 9.68944 7.55582 9.46132 7.55582ZM7.02718 7.55582C7.20489 7.00297 7.53443 6.52423 7.97039 6.18561C8.40635 5.84698 8.92726 5.66513 9.46132 5.66513C9.99538 5.66513 10.5163 5.84698 10.9523 6.18561C11.3882 6.52423 11.7178 7.00297 11.8955 7.55582H12.9018C13.1299 7.55582 13.3487 7.6553 13.51 7.83237C13.6713 8.00944 13.7619 8.2496 13.7619 8.50001C13.7619 8.75043 13.6713 8.99058 13.51 9.16765C13.3487 9.34472 13.1299 9.4442 12.9018 9.4442H11.8955C11.7178 9.99705 11.3882 10.4758 10.9523 10.8144C10.5163 11.153 9.99538 11.3349 9.46132 11.3349C8.92726 11.3349 8.40635 11.153 7.97039 10.8144C7.53443 10.4758 7.20489 9.99705 7.02718 9.4442H0.86012C0.632002 9.4442 0.413227 9.34472 0.251924 9.16765C0.0906197 8.99058 0 8.75043 0 8.50001C0 8.2496 0.0906197 8.00944 0.251924 7.83237C0.413227 7.6553 0.632002 7.55582 0.86012 7.55582H7.02718ZM4.3006 13.221C4.07248 13.221 3.85371 13.3204 3.6924 13.4975C3.5311 13.6746 3.44048 13.9147 3.44048 14.1651C3.44048 14.4156 3.5311 14.6557 3.6924 14.8328C3.85371 15.0099 4.07248 15.1093 4.3006 15.1093C4.52872 15.1093 4.74749 15.0099 4.9088 14.8328C5.0701 14.6557 5.16072 14.4156 5.16072 14.1651C5.16072 13.9147 5.0701 13.6746 4.9088 13.4975C4.74749 13.3204 4.52872 13.221 4.3006 13.221ZM1.86646 13.221C2.04416 12.6681 2.37371 12.1894 2.80967 11.8507C3.24563 11.5121 3.76654 11.3303 4.3006 11.3303C4.83466 11.3303 5.35557 11.5121 5.79153 11.8507C6.2275 12.1894 6.55704 12.6681 6.73474 13.221H12.9018C13.1299 13.221 13.3487 13.3204 13.51 13.4975C13.6713 13.6746 13.7619 13.9147 13.7619 14.1651C13.7619 14.4156 13.6713 14.6557 13.51 14.8328C13.3487 15.0099 13.1299 15.1093 12.9018 15.1093H6.73474C6.55704 15.6622 6.2275 16.1409 5.79153 16.4795C5.35557 16.8182 4.83466 17 4.3006 17C3.76654 17 3.24563 16.8182 2.80967 16.4795C2.37371 16.1409 2.04416 15.6622 1.86646 15.1093H0.86012C0.632002 15.1093 0.413227 15.0099 0.251924 14.8328C0.0906197 14.6557 0 14.4156 0 14.1651C0 13.9147 0.0906197 13.6746 0.251924 13.4975C0.413227 13.3204 0.632002 13.221 0.86012 13.221H1.86646Z" fill="#58BA4E"/>
</svg>
