<svg width="24" height="24" viewBox="0 0 24 24" fill="none" xmlns="http://www.w3.org/2000/svg">
<g clip-path="url(#clip0_10_2230)">
<path d="M11.9997 1.3335C9.89001 1.3335 7.82772 1.95909 6.0736 3.13115C4.31947 4.30322 2.9523 5.96913 2.14496 7.91821C1.33763 9.86728 1.12639 12.012 1.53797 14.0811C1.94955 16.1503 2.96545 18.0509 4.45721 19.5426C5.94897 21.0344 7.84959 22.0503 9.91872 22.4619C11.9878 22.8734 14.1326 22.6622 16.0816 21.8549C18.0307 21.0475 19.6966 19.6804 20.8687 17.9262C22.0408 16.1721 22.6663 14.1098 22.6663 12.0002C22.6663 9.17119 21.5425 6.45808 19.5422 4.45769C17.5418 2.4573 14.8287 1.3335 11.9997 1.3335ZM11.853 18.5668C11.6355 18.5668 11.4228 18.5023 11.2419 18.3814C11.061 18.2606 10.92 18.0888 10.8367 17.8878C10.7535 17.6868 10.7317 17.4656 10.7741 17.2522C10.8166 17.0388 10.9214 16.8428 11.0752 16.689C11.229 16.5352 11.425 16.4304 11.6384 16.388C11.8518 16.3455 12.073 16.3673 12.274 16.4506C12.475 16.5338 12.6468 16.6748 12.7676 16.8557C12.8885 17.0366 12.953 17.2493 12.953 17.4668C12.953 17.7586 12.8371 18.0384 12.6308 18.2446C12.4245 18.4509 12.1448 18.5668 11.853 18.5668ZM12.7663 13.1935V14.3402C12.7649 14.5734 12.6744 14.7972 12.5133 14.9658C12.3521 15.1344 12.1326 15.2349 11.8997 15.2468H11.8263C11.7085 15.2513 11.5909 15.2323 11.4804 15.1911C11.3698 15.1499 11.2686 15.0872 11.1824 15.0066C11.0963 14.926 11.0269 14.8292 10.9784 14.7217C10.9299 14.6141 10.9031 14.4981 10.8997 14.3802V12.5402C10.8887 12.4333 10.8995 12.3253 10.9315 12.2227C10.9635 12.1201 11.016 12.0252 11.0859 11.9435C11.1557 11.8618 11.2414 11.7952 11.3377 11.7476C11.4341 11.7001 11.5391 11.6726 11.6463 11.6668C12.693 11.5868 14.433 11.2002 14.433 9.50016C14.433 8.28016 13.493 7.4535 12.1463 7.4535C11.6358 7.46192 11.1332 7.58068 10.6729 7.80162C10.2126 8.02256 9.80557 8.34046 9.47968 8.7335C9.35643 8.86446 9.19701 8.95581 9.0217 8.99593C8.84639 9.03605 8.66311 9.02313 8.49516 8.95881C8.32721 8.89449 8.18219 8.78168 8.07853 8.63472C7.97487 8.48776 7.91725 8.31329 7.91301 8.1335C7.91695 7.88217 8.01997 7.64257 8.19968 7.46683C8.69477 6.89366 9.30952 6.43603 10.0006 6.12618C10.6917 5.81634 11.4424 5.66181 12.1997 5.6735C14.6663 5.6735 16.3863 7.20683 16.3863 9.40683C16.3863 11.4402 15.073 12.8002 12.7663 13.1935Z" fill="#6E16FF"/>
</g>
<defs>
<clipPath id="clip0_10_2230">
<rect width="24" height="24" fill="white"/>
</clipPath>
</defs>
</svg>
