<svg width="36" height="35" viewBox="0 0 36 35" fill="none" xmlns="http://www.w3.org/2000/svg">
<path fill-rule="evenodd" clip-rule="evenodd" d="M2.28149 32.7419H33.9034V33.3019V33.871H1.15246V32.7419H2.28149ZM23.1008 31.6129H11.946C12.1808 31.4142 13.0389 31.0077 13.3099 30.8451L17.5279 28.6051L23.1008 31.6129ZM22.8208 25.6787C22.875 25.9135 22.9653 26.1213 23.0286 26.32C23.1008 26.5549 23.1369 26.7355 23.2182 26.9793L24.0311 29.6258C24.1576 30.0232 24.3473 30.5561 24.4466 30.9716L19.5511 28.3161C19.3615 28.2077 18.964 27.9819 18.8015 27.9368C18.9731 27.6929 21.3666 26.5097 21.7821 26.2568C21.9628 26.1394 22.0711 26.0942 22.2789 25.9858C22.5137 25.8683 22.6131 25.7871 22.8208 25.6787ZM10.6092 30.9716C10.6995 30.5742 10.8712 30.0955 11.0066 29.68L12.235 25.6787C12.4247 25.7781 12.5331 25.8684 12.7228 25.9587C13.3641 26.2929 16.1099 27.7381 16.2544 27.9368L10.6092 30.9716ZM14.2131 25.3987H20.8427L20.4544 25.6426C20.2918 25.7329 20.2286 25.7781 20.0479 25.8684L17.5279 27.2322C16.977 26.9432 16.4621 26.6271 15.8841 26.338L14.6466 25.6697C14.5653 25.6155 14.5021 25.5884 14.4208 25.5432L14.3305 25.489C14.2041 25.4077 14.2853 25.4619 14.2131 25.3987ZM17.5279 21.018C17.9524 21.3071 21.3124 24.0258 21.484 24.2697H13.5718C13.7253 24.0439 17.1215 21.298 17.5279 21.018ZM21.9718 23.0684C21.746 22.9148 18.6931 20.5032 18.5124 20.2413L20.084 18.9226C20.2557 18.7781 20.4724 18.5884 20.635 18.48C20.6621 18.7961 21.5021 21.3342 21.6647 21.8942C21.764 22.2555 21.9718 22.7342 21.9718 23.0684ZM13.0841 23.0684C13.0841 22.7161 13.9241 20.151 14.0957 19.6361C14.186 19.3652 14.4028 18.7238 14.4208 18.48C14.5653 18.5793 14.7731 18.76 14.9357 18.8864C15.2337 19.1393 16.3808 20.0064 16.5434 20.2413C16.426 20.4039 13.4634 22.8697 13.0841 23.0684ZM15.8299 18.0555H19.226C19.0634 18.2994 17.826 19.2658 17.5279 19.4645C17.2389 19.2748 16.9499 19.0219 16.6608 18.7871L15.8299 18.0555ZM14.7008 15.7974H20.355V16.9265H14.7008V15.7974ZM21.484 12.1936L26.3705 14.6413L21.484 14.6684V12.1936ZM14.7008 11.8413H20.355V14.6684H14.7008V11.8413ZM13.5628 12.2387L13.5718 14.6684H8.77568L13.5628 12.2387ZM14.7008 9.58324H20.355V10.7123H14.7008V9.58324ZM21.484 5.97939L26.3705 8.42715L21.484 8.45421V5.97939ZM14.7008 5.62712H20.355V8.45421H14.7008V5.62712ZM13.5628 6.02454L13.5718 8.45421H8.77568L13.5628 6.02454ZM14.7008 4.29036C14.7008 4.06456 17.3924 1.48132 17.5279 1.391C17.6724 1.49035 20.355 4.06456 20.355 4.29036V4.49809H14.7008V4.29036ZM13.5718 4.71485L6.47246 8.26452C5.45182 8.77935 5.66858 8.41807 5.66858 11.209H6.79761V9.58324H13.5718V10.92C13.3641 10.9832 12.795 11.3084 12.5873 11.4168C12.2441 11.5975 11.9189 11.751 11.5486 11.9406C11.3679 12.031 11.2595 12.0671 11.0699 12.1574C10.8802 12.2568 10.7628 12.3291 10.5641 12.4284L6.47246 14.4787C5.44279 14.9935 5.66858 14.6413 5.66858 17.4865H6.79761V15.7974H13.5718C13.5718 17.4594 13.6079 17.3871 13.0931 18.9136C12.8853 19.5187 12.7228 20.16 12.5241 20.7471C11.7834 22.9329 11.0428 25.7329 10.3021 27.9819C10.0944 28.6051 9.94987 29.1561 9.75116 29.7703C9.57051 30.3393 9.33567 30.9987 9.20019 31.6129H1.92923C-0.292698 31.6129 0.0144029 31.2245 0.0144029 34.431C0.0144029 34.7742 0.240213 35 0.583439 35H34.4724C34.8156 35 35.0324 34.7742 35.0324 34.431C35.0324 31.2426 35.3395 31.6129 33.1989 31.6129H25.8556L23.6428 24.369C23.5163 23.9716 21.484 17.6039 21.484 17.062V15.7974H28.2582V17.4865H29.3873C29.3873 14.9755 29.6492 14.9664 28.6556 14.4787L25.6027 12.9523C25.0066 12.6542 21.8182 11.0013 21.484 10.92V9.58324H28.2582V11.209H29.3873C29.3873 8.75227 29.6402 8.75226 28.6556 8.26452L23.5795 5.72646C23.1098 5.49162 21.8815 4.80518 21.484 4.71485C21.484 3.33292 21.5563 3.75742 19.8402 2.05033C17.1124 -0.677405 17.9434 -0.677386 15.2518 2.01422C13.5266 3.73938 13.5718 3.31486 13.5718 4.71485Z" fill="#0D47A1"/>
</svg>
