<svg width="22" height="22" viewBox="0 0 22 22" fill="none" xmlns="http://www.w3.org/2000/svg">
<path d="M10.0833 5C5.5 5 1.58583 7.85083 0 11.875C1.58583 15.8992 5.5 18.75 10.0833 18.75C14.6667 18.75 18.5808 15.8992 20.1667 11.875C18.5808 7.85083 14.6667 5 10.0833 5ZM10.0833 16.4583C7.55333 16.4583 5.5 14.405 5.5 11.875C5.5 9.345 7.55333 7.29167 10.0833 7.29167C12.6133 7.29167 14.6667 9.345 14.6667 11.875C14.6667 14.405 12.6133 16.4583 10.0833 16.4583ZM10.0833 9.125C8.56167 9.125 7.33333 10.3533 7.33333 11.875C7.33333 13.3967 8.56167 14.625 10.0833 14.625C11.605 14.625 12.8333 13.3967 12.8333 11.875C12.8333 10.3533 11.605 9.125 10.0833 9.125Z" fill="#828282"/>
</svg>
