<svg width="56" height="38" viewBox="0 0 56 38" fill="none" xmlns="http://www.w3.org/2000/svg">
<path fill-rule="evenodd" clip-rule="evenodd" d="M29.2789 30.1765C34.8438 31.2538 41.709 30.9898 46.9324 29.6888C49.879 28.9549 51.5303 28.1558 53.9391 26.5357C53.9391 29.3989 54.3458 30.3638 52.9513 31.7534C51.7614 32.939 50.7052 33.3689 49.0478 34.0426C42.4659 36.7178 32.0657 36.4451 25.2897 34.1186C24.6016 34.6134 23.8755 35.0621 23.117 35.4608C26.8376 37.1868 31.8596 38 35.391 38C40.3426 38 44.9836 37.8815 49.3882 36.136C52.0257 35.0908 56 33.3187 56 29.8795V7.90639C56 6.25797 54.391 4.59038 53.339 3.89164C51.7605 2.84326 50.7615 2.35936 48.8467 1.71618C43.7244 -0.00435624 39.2621 -0.166084 33.6475 0.104609C30.018 0.27963 24.4108 1.16115 21 3.76291C21.7949 4.06053 22.5624 4.41069 23.2985 4.80819C24.573 4.13429 25.944 3.64869 26.7951 3.41269C29.8631 2.5619 33.7323 2.01451 36.9747 2.00926L42.3215 2.37866C44.9199 2.70264 48.9568 3.588 51.18 4.94555C56.3905 8.12718 53.4056 10.5624 49.3394 12.3624C47.3041 13.2634 42.1781 14.2998 39.8326 14.2781C38.6169 14.2668 38.0828 14.4631 36.9737 14.4447C35.2994 14.4171 33.3627 14.2628 31.4718 13.9929C31.7458 14.7025 31.9734 15.434 32.1508 16.1837C33.8937 16.3961 35.5793 16.5046 36.9764 16.5046C41.1919 16.5046 46.8698 15.7124 50.4562 14.121C51.1211 13.8259 51.646 13.646 52.2895 13.2554C52.7916 12.9506 53.4694 12.3315 53.9392 12.2055C53.9392 16.038 54.6368 17.7098 48.4355 19.8934C44.476 21.2876 38.2324 21.8878 32.5584 21.3386C32.506 22.0456 32.4104 22.7411 32.2736 23.4225C33.7329 23.5782 35.3481 23.6697 37.1349 23.6697C42.497 23.6697 47.8221 22.8213 52.3026 20.4337C52.9966 20.0639 53.2864 19.7176 53.9392 19.3707C53.9392 20.4008 53.9873 21.5459 53.9447 22.5608C53.8492 24.8367 50.5604 26.3728 48.6895 26.9953C43.6837 28.6609 36.6066 29.3027 30.4775 28.3049C30.118 28.9542 29.7177 29.5792 29.279 30.1765L29.2789 30.1765Z" fill="white"/>
<path fill-rule="evenodd" clip-rule="evenodd" d="M22.2192 32.9638C22.7141 32.6755 23.3847 32.1623 23.8379 31.8208C26.0904 30.1232 27.3786 28.6196 28.6484 26.0939C30.186 23.0354 30.5175 19.2647 29.686 15.8437C29.4948 15.0567 29.3953 14.7863 28.8023 14.7863C27.4375 14.7863 28.7099 16.5987 28.7099 19.5928C28.7099 25.0757 25.4601 29.6334 21.0699 31.8256C16.6318 34.0418 11.045 33.5294 7.06627 30.6067C5.16578 29.2106 3.6012 27.2995 2.61236 25.0779C0.699619 20.7803 1.14436 15.5903 3.8982 11.7886C4.86509 10.4538 5.89448 9.31176 7.26516 8.40799C8.00378 7.92106 8.5362 7.54523 9.44428 7.16712C11.1977 6.43701 12.943 5.91282 14.9374 5.91282C19.4252 5.91282 23.5281 8.09392 25.8711 11.2471C26.8534 12.569 27.2802 13.9859 28.1324 13.2891C28.7721 12.7661 28.1805 12.0485 27.5649 11.1249C26.4358 9.43086 25.2396 8.37436 23.6522 7.18079C22.0152 5.94991 18.608 4.52637 15.7694 4.52637C13.1568 4.52637 11.5515 4.67637 9.1796 5.70088C6.48383 6.8653 4.6104 8.44945 2.90789 10.7059C2.64038 11.0604 2.49162 11.3119 2.23641 11.6982C0.381122 14.507 -0.403778 18.6796 0.200607 22.0362C0.381916 23.0431 0.600543 23.7661 0.875371 24.5966C2.08607 28.255 4.69008 30.9378 7.96669 32.8489C8.04303 32.8959 8.11936 32.9428 8.1957 32.9898C13.4517 35.7252 19.9198 34.3024 22.2192 32.9639L22.2192 32.9638Z" fill="white"/>
<path fill-rule="evenodd" clip-rule="evenodd" d="M3.01367 19.593C3.01367 19.9552 3.08297 20.7245 3.14218 21.1282C3.21755 21.642 3.30143 22.0375 3.41911 22.515C3.54274 23.0172 3.58732 23.41 4.02554 23.5816C4.42972 23.7398 4.95477 23.487 4.95477 23.0129C4.95477 22.2371 4.49262 21.6323 4.49262 19.4081C4.49262 16.5687 5.72747 13.97 7.61214 12.0828C12.0748 7.61425 19.2591 8.10277 23.137 12.6874C25.7457 15.7714 26.4421 20.2663 24.7049 23.9994C24.4347 24.58 24.1348 25.0838 23.7937 25.5839C23.105 26.5935 22.2645 27.4378 21.2764 28.1503C20.7015 28.5649 20.2816 28.7956 19.6518 29.1138C16.381 30.7666 12.226 30.38 9.20627 28.3743C6.66896 26.6891 6.23114 24.8616 5.50942 24.8616C5.12865 24.8616 4.76994 25.2203 4.76994 25.601C4.76994 26.0062 6.09265 27.5867 6.45549 27.9825L7.52849 28.943C11.0203 31.7914 15.5619 32.3465 19.9169 30.5805C20.5982 30.3043 21.2 29.9285 21.8147 29.5205L23.4641 28.2119L24.8147 26.6047C25.0297 26.3199 25.2278 26.0542 25.4115 25.7226C25.7649 25.0849 26.1356 24.4035 26.3657 23.719C26.5089 23.2934 26.5997 23.0451 26.7148 22.5892C26.8281 22.1403 26.8878 21.8322 26.9682 21.3637C27.0357 20.9704 27.06 20.3204 27.1145 19.9362C27.1871 19.4251 26.9738 17.6694 26.8817 17.2617C26.0482 13.5708 23.8701 10.5141 20.4548 8.80691C17.1452 7.15255 13.1611 7.15817 9.82138 8.746C8.12392 9.55302 6.96624 10.6424 5.76292 11.9896C4.05094 13.9063 3.01379 16.996 3.01379 19.5929L3.01367 19.593Z" fill="white"/>
<path fill-rule="evenodd" clip-rule="evenodd" d="M10.4082 14.4167C10.4082 16.1512 13.9118 14.2009 15.8363 15.8286C16.2276 16.1596 16.641 16.6503 16.6936 17.282C15.5536 17.282 14.4136 17.282 13.2736 17.282C11.2959 17.282 10.4082 16.934 10.4082 18.2064C10.4082 19.0428 12.4188 18.761 13.2737 18.761C14.4136 18.761 15.5536 18.761 16.6936 18.761C16.5995 19.8924 15.4072 20.7159 14.269 20.8654C13.406 20.9788 11.3862 20.7855 11.0074 20.9315C10.8008 21.011 10.5007 21.3792 10.5007 21.6264C10.5007 22.2621 11.7174 23.2643 12.327 23.867C12.6139 24.1506 12.707 24.3344 12.9714 24.6091C13.443 25.0991 13.8782 25.5122 14.3597 25.9937C15.3848 27.0187 15.263 27.2646 16.0466 27.2646C16.479 27.2646 16.6012 26.7909 16.6012 26.4328C16.6012 26.1424 14.9454 24.5459 14.7294 24.3299C14.3919 23.9924 14.0777 23.7065 13.7578 23.3605C13.5491 23.135 13.5196 23.0308 13.2984 22.8031C13.093 22.5916 12.9689 22.5084 12.8115 22.2733C14.359 22.2733 15.2512 22.3981 16.4851 21.5101C17.1703 21.017 18.1726 19.8659 18.1726 18.7609C18.7454 18.7609 19.8364 18.8998 19.8364 18.0214C19.8364 17.1565 18.6291 17.282 18.1726 17.282C18.1726 16.7422 17.8553 16.0748 17.5778 15.6584C17.4155 15.4148 17.3938 15.431 17.2483 15.156C18.1684 15.156 19.8364 15.4382 19.8364 14.509C19.8364 14.0619 19.5441 13.7695 19.0969 13.7695H11.0553C10.6239 13.7695 10.4083 13.985 10.4083 14.4166L10.4082 14.4167Z" fill="#44FAA2"/>
</svg>
