<svg width="23" height="22" viewBox="0 0 23 22" fill="none" xmlns="http://www.w3.org/2000/svg">
<path d="M21.9796 9.97778C22.2329 9.78523 22.4207 9.51662 22.5169 9.20961C22.613 8.9026 22.6126 8.57259 22.5156 8.26585C22.4187 7.9591 22.2301 7.69101 21.9763 7.49916C21.7225 7.30731 21.4163 7.20132 21.1005 7.19606L14.9674 6.95961C14.9372 6.95749 14.9083 6.94651 14.8841 6.928C14.86 6.9095 14.8415 6.88425 14.8311 6.8553L12.7118 1.01369C12.6053 0.716495 12.4119 0.459866 12.1577 0.278553C11.9036 0.0972394 11.601 0 11.2909 0C10.9808 0 10.6782 0.0972394 10.4241 0.278553C10.17 0.459866 9.97656 0.716495 9.87007 1.01369L7.75755 6.87616C7.74711 6.90511 7.72869 6.93036 7.70451 6.94887C7.68033 6.96738 7.65142 6.97835 7.62126 6.98048L1.48813 7.21692C1.17235 7.22219 0.866097 7.32817 0.612318 7.52002C0.35854 7.71187 0.169961 7.97997 0.0730231 8.28671C-0.0239145 8.59345 -0.0243494 8.92347 0.0717793 9.23048C0.167908 9.53749 0.35578 9.80609 0.609052 9.99864L5.42015 13.8583C5.44423 13.8776 5.46223 13.9037 5.47191 13.9334C5.4816 13.9631 5.48256 13.995 5.47467 14.0252L3.81872 20.0128C3.73291 20.3177 3.74122 20.6422 3.84253 20.9421C3.94384 21.242 4.13322 21.5028 4.38491 21.689C4.6366 21.8752 4.93839 21.9777 5.24921 21.9827C5.56003 21.9876 5.8648 21.8947 6.12205 21.7166L11.2057 18.2395C11.2308 18.2218 11.2605 18.2124 11.2909 18.2124C11.3213 18.2124 11.3511 18.2218 11.3761 18.2395L16.4598 21.7166C16.7136 21.9008 17.0172 21.9998 17.3286 21.9998C17.64 21.9998 17.9437 21.9008 18.1975 21.7166C18.4493 21.5322 18.6388 21.2727 18.7401 20.9738C18.8414 20.6749 18.8494 20.3513 18.7631 20.0476L17.0935 14.0391C17.0847 14.0089 17.0852 13.9767 17.0949 13.9468C17.1047 13.917 17.1232 13.8909 17.1481 13.8722L21.9796 9.97778Z" fill="#F0C419"/>
</svg>
