<svg width="22" height="22" viewBox="0 0 22 22" fill="none" xmlns="http://www.w3.org/2000/svg">
<path d="M6.41699 16.5C4.88921 16.5 3.5906 15.9653 2.52116 14.8958C1.45171 13.8264 0.916992 12.5278 0.916992 11C0.916992 9.47222 1.45171 8.17361 2.52116 7.10417C3.5906 6.03472 4.88921 5.5 6.41699 5.5C7.65449 5.5 8.73555 5.84742 9.66016 6.54225C10.5848 7.23708 11.2301 8.11189 11.5962 9.16667H21.0837V12.8333H19.2503V16.5H15.5837V12.8333H11.5962C11.2295 13.8875 10.5839 14.7623 9.65924 15.4578C8.73463 16.1532 7.65388 16.5006 6.41699 16.5ZM6.41699 12.8333C6.92116 12.8333 7.35291 12.6537 7.71224 12.2943C8.07158 11.935 8.25094 11.5036 8.25033 11C8.25033 10.4958 8.07066 10.0641 7.71133 9.70475C7.35199 9.34542 6.92055 9.16606 6.41699 9.16667C5.91283 9.16667 5.48108 9.34633 5.12174 9.70567C4.76241 10.065 4.58305 10.4964 4.58366 11C4.58366 11.5042 4.76333 11.9359 5.12266 12.2953C5.48199 12.6546 5.91344 12.8339 6.41699 12.8333Z" fill="#6E16FF"/>
</svg>
