<svg width="158" height="158" viewBox="0 0 158 158" fill="none" xmlns="http://www.w3.org/2000/svg">
<path d="M79.0384 34.5516C102.925 34.9216 122.857 43.9838 138.553 62.1062C140.695 64.581 140.433 68.015 138.042 70.0683C135.761 72.0274 132.371 71.7794 130.274 69.3452C124.569 62.7202 117.953 57.2339 110.203 53.166C85.8985 40.4119 56.8273 43.5384 35.8899 61.2531C33.0044 63.6942 30.4363 66.5252 27.8355 69.2837C25.5818 71.6732 22.2579 72.0551 19.8753 70.0018C17.5245 67.9754 17.3459 64.5245 19.4904 62.0377C32.6443 46.7919 49.1955 37.7803 69.144 35.0248C70.7063 34.8085 72.2804 34.6399 73.8556 34.5695C75.5796 34.4911 77.3105 34.5506 79.0374 34.5506L79.0384 34.5516Z" fill="#202E34"/>
<path d="M81.0122 56.6991C96.1102 57.0899 110.303 63.5394 121.472 76.4463C123.675 78.9915 123.417 82.2768 120.972 84.3777C118.644 86.3784 115.273 86.1086 113.124 83.6179C107.296 76.8718 100.233 71.9231 91.6198 69.599C74.0698 64.8606 58.8974 69.1814 46.1889 82.1736C45.7167 82.6567 45.2793 83.1755 44.831 83.6803C42.734 86.0421 39.3417 86.3595 37.0493 84.4064C34.632 82.3482 34.3811 78.9429 36.4949 76.4502C41.4703 70.584 47.3971 65.919 54.2909 62.4969C62.1043 58.6195 70.3848 56.7338 81.0122 56.6981V56.6991Z" fill="#202E34"/>
<path d="M105.851 94.4704C105.849 96.7697 104.46 98.8031 102.322 99.6363C100.17 100.476 97.781 99.9171 96.1701 98.0929C93.7964 95.4038 91.0577 93.2305 87.7378 91.823C78.6736 87.9823 68.675 90.3688 61.934 97.9808C60.334 99.7881 58.3402 100.443 56.034 99.7435C53.8151 99.07 52.5355 97.473 52.1933 95.1826C51.9523 93.5718 52.4383 92.1384 53.4749 90.8886C65.0188 76.968 86.2578 74.9971 100.147 86.6015C101.724 87.9208 103.207 89.3958 104.513 90.9809C105.281 91.9133 105.612 93.2057 106.141 94.3355L105.851 94.4684V94.4704Z" fill="#202E34"/>
<path d="M79.0194 123.47C72.8259 123.473 67.9079 118.558 67.9109 112.373C67.9149 106.284 72.8626 101.334 78.9708 101.311C85.1058 101.286 90.0853 106.278 90.0684 112.437C90.0535 118.569 85.1485 123.467 79.0194 123.471V123.47Z" fill="#202E34"/>
<path d="M79.0005 147.135C63.0683 147.135 48.4077 141.624 36.7913 132.427L132.429 36.7913C141.624 48.4067 147.136 63.0673 147.136 78.9985C147.136 116.569 116.572 147.134 79.0015 147.134L79.0005 147.135ZM10.8645 78.9995C10.8645 41.4295 41.4305 10.8645 79.0005 10.8645C96.7331 10.8645 112.9 17.678 125.036 28.8192L28.8202 125.035C17.679 112.9 10.8635 96.7321 10.8635 78.9995H10.8645ZM79.0005 0C35.4393 0 0 35.4393 0 78.9995C0 122.561 35.4393 158 79.0005 158C122.561 158 158 122.561 158 78.9995C158 35.4393 122.561 0 79.0005 0Z" fill="#5AE4A8"/>
</svg>
