<svg width="22" height="23" viewBox="0 0 22 23" fill="none" xmlns="http://www.w3.org/2000/svg">
<path d="M15.3587 1.91675H6.64125C5.57883 1.91675 5.04808 1.91675 4.61908 2.07296C4.21463 2.22289 3.84868 2.46827 3.54964 2.79004C3.25061 3.11181 3.02654 3.50131 2.89483 3.92829C2.75 4.39021 2.75 4.96137 2.75 6.10466V19.5252C2.75 20.3474 3.65292 20.7844 4.224 20.2382C4.38422 20.0834 4.59435 19.9974 4.8125 19.9974C5.03065 19.9974 5.24078 20.0834 5.401 20.2382L5.84375 20.6617C6.12444 20.9331 6.49269 21.0838 6.875 21.0838C7.25731 21.0838 7.62556 20.9331 7.90625 20.6617C8.18694 20.3904 8.55519 20.2397 8.9375 20.2397C9.31981 20.2397 9.68806 20.3904 9.96875 20.6617C10.2494 20.9331 10.6177 21.0838 11 21.0838C11.3823 21.0838 11.7506 20.9331 12.0313 20.6617C12.3119 20.3904 12.6802 20.2397 13.0625 20.2397C13.4448 20.2397 13.8131 20.3904 14.0938 20.6617C14.3744 20.9331 14.7427 21.0838 15.125 21.0838C15.5073 21.0838 15.8756 20.9331 16.1563 20.6617L16.599 20.2382C16.7592 20.0834 16.9694 19.9974 17.1875 19.9974C17.4056 19.9974 17.6158 20.0834 17.776 20.2382C18.3471 20.7844 19.25 20.3474 19.25 19.5252V6.10466C19.25 4.96137 19.25 4.38925 19.1052 3.92925C18.9736 3.50206 18.7497 3.11233 18.4506 2.79038C18.1516 2.46843 17.7855 2.22293 17.3809 2.07296C16.9519 1.91675 16.4212 1.91675 15.3587 1.91675Z" stroke="#58BA4E" stroke-width="1.2"/>
<path d="M8 10L9.7148 12L14 7" stroke="#58BA4E" stroke-width="1.5" stroke-linecap="round" stroke-linejoin="round"/>
<path d="M6.875 15.8542H15.125" stroke="#58BA4E" stroke-width="1.2" stroke-linecap="round"/>
</svg>
