<svg width="19" height="19" viewBox="0 0 19 19" fill="none" xmlns="http://www.w3.org/2000/svg">
<path d="M0.950076 9.49975C0.950076 10.6225 1.17123 11.7343 1.6009 12.7717C2.03057 13.809 2.66036 14.7515 3.45429 15.5455C4.24822 16.3394 5.19076 16.9692 6.22809 17.3988C7.26541 17.8285 8.37721 18.0497 9.5 18.0497C10.6228 18.0497 11.7346 17.8285 12.7719 17.3988C13.8092 16.9692 14.7518 16.3394 15.5457 15.5455C16.3396 14.7515 16.9694 13.809 17.3991 12.7717C17.8288 11.7343 18.0499 10.6225 18.0499 9.49975C18.0499 8.37696 17.8288 7.26516 17.3991 6.22783C16.9694 5.19051 16.3396 4.24797 15.5457 3.45404C14.7518 2.6601 13.8092 2.03032 12.7719 1.60065C11.7346 1.17097 10.6228 0.949823 9.5 0.949823C8.37721 0.949823 7.26541 1.17097 6.22809 1.60065C5.19076 2.03032 4.24822 2.6601 3.45429 3.45404C2.66036 4.24797 2.03057 5.19051 1.6009 6.22783C1.17123 7.26516 0.950076 8.37696 0.950076 9.49975Z" stroke="#70D765" stroke-width="1.83333" stroke-linecap="round" stroke-linejoin="round"/>
</svg>
