<svg width="21" height="25" viewBox="0 0 21 25" fill="none" xmlns="http://www.w3.org/2000/svg">
<path d="M17.5 24.8182C16.5278 24.8182 15.7014 24.4562 15.0208 23.7324C14.3403 23.0085 14 22.1295 14 21.0955C14 20.9507 14.0097 20.8005 14.0292 20.645C14.0486 20.4895 14.0778 20.3501 14.1167 20.2268L5.89167 15.1391C5.56111 15.4493 5.19167 15.6925 4.78333 15.8687C4.375 16.045 3.94722 16.1326 3.5 16.1318C2.52778 16.1318 1.70139 15.7699 1.02083 15.046C0.340278 14.3222 0 13.4432 0 12.4091C0 11.375 0.340278 10.496 1.02083 9.77216C1.70139 9.0483 2.52778 8.68636 3.5 8.68636C3.94722 8.68636 4.375 8.77447 4.78333 8.95068C5.19167 9.12689 5.56111 9.36969 5.89167 9.67909L14.1167 4.59136C14.0778 4.46727 14.0486 4.32788 14.0292 4.17318C14.0097 4.01848 14 3.86833 14 3.72273C14 2.68864 14.3403 1.80966 15.0208 1.0858C15.7014 0.361932 16.5278 0 17.5 0C18.4722 0 19.2986 0.361932 19.9792 1.0858C20.6597 1.80966 21 2.68864 21 3.72273C21 4.75682 20.6597 5.6358 19.9792 6.35966C19.2986 7.08352 18.4722 7.44545 17.5 7.44545C17.0528 7.44545 16.625 7.35776 16.2167 7.18238C15.8083 7.007 15.4389 6.76378 15.1083 6.45273L6.88333 11.5405C6.92222 11.6645 6.95139 11.8044 6.97083 11.9599C6.99028 12.1154 7 12.2651 7 12.4091C7 12.5539 6.99028 12.704 6.97083 12.8595C6.95139 13.0151 6.92222 13.1545 6.88333 13.2777L15.1083 18.3655C15.4389 18.0552 15.8083 17.8124 16.2167 17.637C16.625 17.4617 17.0528 17.3736 17.5 17.3727C18.4722 17.3727 19.2986 17.7347 19.9792 18.4585C20.6597 19.1824 21 20.0614 21 21.0955C21 22.1295 20.6597 23.0085 19.9792 23.7324C19.2986 24.4562 18.4722 24.8182 17.5 24.8182Z" fill="#2E2E2E"/>
</svg>
