<svg width="27" height="27" viewBox="0 0 27 27" fill="none" xmlns="http://www.w3.org/2000/svg">
<g clip-path="url(#clip0_10_1736)">
<path fill-rule="evenodd" clip-rule="evenodd" d="M1.07373 14.3714C1.07373 7.44597 6.68819 1.83151 13.6136 1.83151C20.5391 1.83151 26.1536 7.44597 26.1536 14.3714C26.1536 21.2969 20.5391 26.9113 13.6136 26.9113C6.68819 26.9113 1.07373 21.2969 1.07373 14.3714ZM5.52882 20.6893C4.16653 18.9473 3.35371 16.754 3.35371 14.3714C3.35392 12.7423 3.74205 11.1367 4.48599 9.68742C5.22992 8.23812 6.30828 6.9868 7.63184 6.037C8.9554 5.08721 10.4861 4.46623 12.0973 4.22546C13.7085 3.9847 15.3539 4.13106 16.8973 4.65243C18.4407 5.17381 19.8377 6.05521 20.9728 7.22372C22.108 8.39222 22.9485 9.81423 23.425 11.3721C23.9014 12.9299 24.0001 14.5789 23.7127 16.1824C23.4254 17.7859 22.7603 19.298 21.7726 20.5935C20.8138 19.3645 19.5871 18.3706 18.1861 17.6874C16.785 17.0043 15.2465 16.6499 13.6877 16.6514C12.1086 16.65 10.5504 17.0138 9.13511 17.7142C7.71977 18.4147 6.48553 19.4329 5.52882 20.6893ZM7.14761 22.3377C8.97418 23.8246 11.2584 24.6349 13.6136 24.6314C16.0106 24.6347 18.3324 23.7954 20.1732 22.2602C19.4349 21.2295 18.4613 20.3898 17.3334 19.8108C16.2054 19.2319 14.9556 18.9304 13.6877 18.9314C12.4039 18.9305 11.1388 19.2397 10.0001 19.8328C8.8614 20.4258 7.88282 21.2852 7.14761 22.3377ZM16.8381 13.2417C17.6932 12.3865 18.1737 11.2266 18.1737 10.0173C18.1737 8.80789 17.6932 7.64804 16.8381 6.79288C15.9829 5.93772 14.8231 5.4573 13.6137 5.4573C12.4043 5.4573 11.2445 5.93772 10.3893 6.79288C9.53414 7.64804 9.05372 8.80789 9.05372 10.0173C9.05372 11.2266 9.53414 12.3865 10.3893 13.2417C11.2445 14.0968 12.4043 14.5772 13.6137 14.5772C14.8231 14.5772 15.9829 14.0968 16.8381 13.2417ZM15.2259 11.6295C15.6535 11.2019 15.8937 10.622 15.8937 10.0173C15.8937 9.41258 15.6535 8.83266 15.2259 8.40508C14.7983 7.9775 14.2184 7.73728 13.6137 7.73728C13.009 7.73728 12.4291 7.9775 12.0015 8.40508C11.5739 8.83266 11.3337 9.41258 11.3337 10.0173C11.3337 10.622 11.5739 11.2019 12.0015 11.6295C12.4291 12.057 13.009 12.2973 13.6137 12.2973C14.2184 12.2973 14.7983 12.057 15.2259 11.6295Z" fill="white"/>
</g>
<defs>
<clipPath id="clip0_10_1736">
<rect width="26.9139" height="26.9139" fill="white" transform="scale(1.00319)"/>
</clipPath>
</defs>
</svg>
