<svg width="22" height="22" viewBox="0 0 22 22" fill="none" xmlns="http://www.w3.org/2000/svg">
<path d="M9.33333 15.5832C8.325 15.5832 7.5 14.7582 7.5 13.7498C7.5 12.7415 8.325 11.9165 9.33333 11.9165C10.3417 11.9165 11.1667 12.7415 11.1667 13.7498C11.1667 14.7582 10.3417 15.5832 9.33333 15.5832ZM14.8333 18.3332V9.1665H3.83333V18.3332H14.8333ZM14.8333 7.33317C15.8417 7.33317 16.6667 8.15817 16.6667 9.1665V18.3332C16.6667 19.3415 15.8417 20.1665 14.8333 20.1665H3.83333C2.825 20.1665 2 19.3415 2 18.3332V9.1665C2 8.15817 2.825 7.33317 3.83333 7.33317H4.75V5.49984C4.75 2.93317 6.76667 0.916504 9.33333 0.916504C11.9 0.916504 13.9167 2.93317 13.9167 5.49984V7.33317H14.8333ZM9.33333 2.74984C7.775 2.74984 6.58333 3.9415 6.58333 5.49984V7.33317H12.0833V5.49984C12.0833 3.9415 10.8917 2.74984 9.33333 2.74984Z" fill="#6E16FF"/>
</svg>
