<svg width="58" height="56" viewBox="0 0 58 56" fill="none" xmlns="http://www.w3.org/2000/svg">
<path fill-rule="evenodd" clip-rule="evenodd" d="M34.063 49.5615C34.063 49.5615 38.126 49.5615 38.126 46.1054V15.0177C38.126 11.5615 34.063 11.5615 34.063 11.5615H19.3486C19.3486 11.5615 15.126 11.5615 15.126 15.0177V46.1054C15.126 49.5615 19.3486 49.5615 19.3486 49.5615H34.063ZM26.7058 48.1861C25.448 48.1861 24.5097 47.3574 24.5097 46.3875C24.5097 45.5588 25.448 44.73 26.7058 44.73C27.8039 44.73 28.7423 45.5588 28.7423 46.3875C28.7423 47.3574 27.8039 48.1861 26.7058 48.1861ZM17.1624 14.7972H36.0895V43.4868H17.1624V14.7972Z" fill="#0D47A1"/>
<path d="M31.6488 23.976C31.4727 24.9377 30.0374 24.6492 29.2249 24.6355L29.929 26.2979C30.7009 26.3529 31.6894 26.2017 31.6623 27.1909C31.6487 28.1802 30.7821 28.0153 29.8884 28.0702C29.6176 29.293 29.0082 30.0487 28.2364 30.6669C27.2749 31.4363 26.2187 31.4638 24.8104 31.4638L28.5478 34.7474C29.1707 35.242 29.428 35.242 29.1572 36.3137C27.7353 37.0281 26.9229 35.5168 24.9323 33.8819L24.8793 33.8376C24.2144 33.2821 23.6951 32.8482 22.9959 32.2057C22.522 31.7661 21.2627 31.1753 21.8178 30.0762C23.1313 28.8946 27.1395 31.1203 28.101 28.0428L24.499 28.0428C23.3209 28.0428 21.6012 28.4275 21.6012 27.1909C21.6012 25.9819 23.199 26.3391 24.35 26.3391L28.101 26.3391C26.95 22.9868 21.7637 25.9544 21.6147 23.8524C21.5335 22.6983 22.8063 22.9181 23.7542 22.9318C25.7448 22.9318 27.7489 22.9456 29.7259 22.9318C30.5655 22.9181 31.8654 22.7395 31.6488 23.976Z" fill="#5CB1FF"/>
</svg>
