<svg width="45" height="38" viewBox="0 0 45 38" fill="none" xmlns="http://www.w3.org/2000/svg">
<path fill-rule="evenodd" clip-rule="evenodd" d="M12.4979 14.6827L8.5468 15.4317C7.22287 18.0905 7.10911 24.3069 8.61921 26.8347L12.5393 27.6211L14.4734 33.0136L9.47767 35.1107C7.31596 30.1769 5.43352 28.1922 5.42318 21.1707C5.42318 18.5306 5.84724 15.8156 6.58161 13.447C7.36768 10.8912 8.60886 9.24343 9.39494 7.23996L14.3803 9.30896L12.4979 14.6827ZM17.4316 9.39321C22.4893 9.76769 29.2124 9.46813 34.446 9.44004C39.7314 9.42132 38.6557 9.21533 38.666 20.9179C38.666 31.8901 39.9072 32.8919 34.7356 32.8544C29.1917 32.8076 23.0169 32.6485 17.535 32.8732L17.4419 34.4741C23.203 34.783 30.3295 34.5864 36.163 34.5115C39.5349 34.4741 40.5381 32.9761 40.5278 29.9241V12.6887C40.5381 9.54302 39.9382 7.8672 36.4526 7.75486C30.9811 7.57698 22.7996 7.46464 17.4316 7.81103V9.39321ZM8.75367 37.2078C11.236 36.6648 14.1735 34.6332 16.6765 33.8936L13.9252 26.1512L9.97415 25.4023C9.36391 23.6141 8.43303 17.5475 10.7809 16.7143L13.7287 16.1151C13.7701 16.0683 13.8321 15.9092 13.8528 15.956L15.2285 12.5389C15.6939 11.3312 16.3973 9.77705 16.5834 8.56935L9.0019 5.05859C3.50969 11.2469 2.29956 22.032 5.04049 30.0365C6.5299 34.3992 7.44009 34.5303 8.75367 37.2078Z" fill="#0D47A1"/>
<path fill-rule="evenodd" clip-rule="evenodd" d="M23.5619 30.0594H25.0306H25.4133L25.4237 28.3649L23.5619 28.3836V30.0594ZM27.2544 30.0594H29.1162V29.7598V28.3743H27.2544V30.0594ZM23.5619 26.7078L25.4237 26.7172V25.0226L23.5619 25.0414V26.7078ZM27.2544 26.7078L27.5854 26.7172H29.1162V26.4176V25.032H27.2544V26.7078ZM19.8694 26.7172H21.7208L21.7312 25.0226L19.8694 25.032V26.7172ZM19.8694 30.0594H21.7312V28.3649L19.859 28.3743L19.8694 28.73V30.0594ZM33.7188 26.3427C34.4739 26.3427 35.0841 26.8763 35.0841 27.5317C35.0841 28.187 34.4739 28.7207 33.7188 28.7207C32.9638 28.7207 32.3432 28.187 32.3432 27.5317C32.3432 26.8763 32.9638 26.3427 33.7188 26.3427ZM31.071 28.2151C31.8261 31.0143 37.1528 30.4994 36.4081 26.97C35.7565 23.8992 30.1091 24.6669 31.071 28.2151ZM19.8694 20.5008L19.9004 14.1721H34.5463L34.6498 20.8004L19.8694 20.8566V20.5008ZM18.0387 22.4387L36.4494 22.523L36.5115 21.5306L36.5012 13.5542V12.4775L18.0283 12.4963L18.0387 22.4387Z" fill="#5CB1FF"/>
</svg>
