<svg width="25" height="24" viewBox="0 0 25 24" fill="none" xmlns="http://www.w3.org/2000/svg">
<path d="M20.6278 3.02809H18.2967V1.86257C18.2967 1.55345 18.1739 1.257 17.9554 1.03842C17.7368 0.819847 17.4403 0.697052 17.1312 0.697052C16.8221 0.697052 16.5256 0.819847 16.3071 1.03842C16.0885 1.257 15.9657 1.55345 15.9657 1.86257V3.02809H8.97259V1.86257C8.97259 1.55345 8.84979 1.257 8.63121 1.03842C8.41264 0.819847 8.11618 0.697052 7.80707 0.697052C7.49795 0.697052 7.2015 0.819847 6.98292 1.03842C6.76435 1.257 6.64155 1.55345 6.64155 1.86257V3.02809H4.31052C3.38317 3.02809 2.49381 3.39647 1.83808 4.0522C1.18235 4.70793 0.813965 5.59729 0.813965 6.52464V20.5108C0.813965 21.4382 1.18235 22.3275 1.83808 22.9833C2.49381 23.639 3.38317 24.0074 4.31052 24.0074H20.6278C21.5551 24.0074 22.4445 23.639 23.1002 22.9833C23.7559 22.3275 24.1243 21.4382 24.1243 20.5108V6.52464C24.1243 5.59729 23.7559 4.70793 23.1002 4.0522C22.4445 3.39647 21.5551 3.02809 20.6278 3.02809ZM21.7933 20.5108C21.7933 20.82 21.6705 21.1164 21.4519 21.335C21.2333 21.5536 20.9369 21.6764 20.6278 21.6764H4.31052C4.0014 21.6764 3.70495 21.5536 3.48637 21.335C3.26779 21.1164 3.145 20.82 3.145 20.5108V12.3522H21.7933V20.5108ZM21.7933 10.0212H3.145V6.52464C3.145 6.21552 3.26779 5.91907 3.48637 5.70049C3.70495 5.48192 4.0014 5.35912 4.31052 5.35912H6.64155V6.52464C6.64155 6.83375 6.76435 7.13021 6.98292 7.34878C7.2015 7.56736 7.49795 7.69016 7.80707 7.69016C8.11618 7.69016 8.41264 7.56736 8.63121 7.34878C8.84979 7.13021 8.97259 6.83375 8.97259 6.52464V5.35912H15.9657V6.52464C15.9657 6.83375 16.0885 7.13021 16.3071 7.34878C16.5256 7.56736 16.8221 7.69016 17.1312 7.69016C17.4403 7.69016 17.7368 7.56736 17.9554 7.34878C18.1739 7.13021 18.2967 6.83375 18.2967 6.52464V5.35912H20.6278C20.9369 5.35912 21.2333 5.48192 21.4519 5.70049C21.6705 5.91907 21.7933 6.21552 21.7933 6.52464V10.0212Z" fill="#626262"/>
</svg>
