<svg width="26" height="27" viewBox="0 0 26 27" fill="none" xmlns="http://www.w3.org/2000/svg">
<path d="M0 12V0H11.5556V12H0ZM2.88889 9H8.66667V3H2.88889V9ZM0 27V15H11.5556V27H0ZM2.88889 24H8.66667V18H2.88889V24ZM14.4444 12V0H26V12H14.4444ZM17.3333 9H23.1111V3H17.3333V9ZM23.1111 27V24H26V27H23.1111ZM14.4444 18V15H17.3333V18H14.4444ZM17.3333 21V18H20.2222V21H17.3333ZM14.4444 24V21H17.3333V24H14.4444ZM17.3333 27V24H20.2222V27H17.3333ZM20.2222 24V21H23.1111V24H20.2222ZM20.2222 18V15H23.1111V18H20.2222ZM23.1111 21V18H26V21H23.1111Z" fill="white"/>
</svg>
