<svg width="29" height="29" viewBox="0 0 29 29" fill="none" xmlns="http://www.w3.org/2000/svg">
<g clip-path="url(#clip0_10_3011)">
<path d="M16.2799 2.8385C16.1005 2.52596 15.8418 2.26629 15.5299 2.08572C15.218 1.90515 14.864 1.81006 14.5036 1.81006C14.1433 1.81006 13.7893 1.90515 13.4774 2.08572C13.1655 2.26629 12.9068 2.52596 12.7274 2.8385L0.299071 23.9849C-0.529241 25.3951 0.464009 27.1876 2.07532 27.1876H26.9301C28.5414 27.1876 29.5365 25.3933 28.7064 23.9849L16.2799 2.8385ZM14.5 9.06263C15.4697 9.06263 16.2291 9.9 16.1313 10.8661L15.4969 17.2225C15.4756 17.4722 15.3613 17.7048 15.1767 17.8743C14.9921 18.0439 14.7506 18.1379 14.5 18.1379C14.2494 18.1379 14.0079 18.0439 13.8233 17.8743C13.6387 17.7048 13.5244 17.4722 13.5031 17.2225L12.8688 10.8661C12.846 10.6381 12.8712 10.4079 12.9428 10.1903C13.0144 9.97269 13.1308 9.77249 13.2844 9.60259C13.4381 9.43269 13.6257 9.29687 13.835 9.20387C14.0444 9.11087 14.2709 9.06276 14.5 9.06263ZM14.5036 19.9376C14.9843 19.9376 15.4454 20.1286 15.7853 20.4685C16.1252 20.8084 16.3161 21.2694 16.3161 21.7501C16.3161 22.2308 16.1252 22.6918 15.7853 23.0318C15.4454 23.3717 14.9843 23.5626 14.5036 23.5626C14.0229 23.5626 13.5619 23.3717 13.222 23.0318C12.8821 22.6918 12.6911 22.2308 12.6911 21.7501C12.6911 21.2694 12.8821 20.8084 13.222 20.4685C13.5619 20.1286 14.0229 19.9376 14.5036 19.9376Z" fill="#074E8E"/>
</g>
<defs>
<clipPath id="clip0_10_3011">
<rect width="29" height="29" fill="white"/>
</clipPath>
</defs>
</svg>
