<svg width="51" height="43" viewBox="0 0 51 43" fill="none" xmlns="http://www.w3.org/2000/svg">
<g clip-path="url(#clip0_10_1674)">
<path fill-rule="evenodd" clip-rule="evenodd" d="M1.69337 8.68072H42.4336V29.2723H32.2781C33.0497 29.8399 33.8228 30.4056 34.58 30.9883H43.4297C44.5528 30.9883 44.2266 29.1545 44.2266 27.5563C48.1296 27.5563 47.6133 28.0796 47.6133 24.1244C48.8984 24.1244 51 24.4414 51 23.4178V0.706589C51 0.541753 50.773 0 50.2031 0H7.47072C7.10826 0 6.77344 0.492141 6.77344 0.908483V3.43189C2.90803 3.43189 3.3867 2.94685 3.3867 6.86384C2.27281 6.86384 0 6.56854 0 7.57043V30.1807C0 30.669 0.31504 30.9883 0.796853 30.9883H7.71223V30.1807C7.71223 29.8558 7.78027 29.5484 7.90282 29.2723H1.69338V8.68072H1.69337ZM5.08011 5.45067C5.08011 5.21809 5.14935 5.14793 5.37887 5.14793H45.6211C45.8506 5.14793 45.9199 5.21809 45.9199 5.45067V25.8404H44.2266V7.77229C44.2266 7.27342 43.8224 6.86385 43.3301 6.86385H5.0801V5.45067H5.08011ZM8.56637 1.71597H49.3067V22.4085H47.6133V4.34038C47.6133 3.79079 47.2591 3.4319 46.7168 3.4319H8.56637V1.71598V1.71597Z" fill="white"/>
<path fill-rule="evenodd" clip-rule="evenodd" d="M25.1182 40.1739C25.1182 39.2639 25.1175 38.3543 25.1223 37.4444C25.1281 36.3392 24.7832 36.0354 23.7236 36.0354H10.6748V30.9885H24.122C24.8037 30.9885 25.1102 30.4978 25.1241 29.7832C25.1382 29.0523 25.1182 28.2915 25.1182 27.5566L32.9873 33.5119C32.7977 33.7989 32.8083 33.7438 32.5326 33.9596C30.733 35.3682 26.4692 39.2571 25.1182 40.1739L25.1182 40.1739ZM35.2783 33.4083V33.6266C35.2044 34.0105 34.7443 34.3958 34.0056 35.0485L25.7415 42.0168C25.4807 42.2522 25.3067 42.3844 25.0435 42.6217C24.7854 42.8544 24.5175 42.9769 24.2722 43.0002H24.1015C23.6585 42.9558 23.3252 42.5611 23.3252 41.8898V37.8523H9.77831C9.16686 37.8523 8.88184 37.3719 8.88184 36.742V30.181C8.88184 29.6139 9.31833 29.1716 9.87792 29.1716H23.3252V25.8406C23.3252 25.1637 23.8198 24.9321 24.3212 24.9321C24.8513 24.9321 29.5196 28.6807 30.0134 29.056C33.6112 31.7911 35.1391 32.6827 35.2783 33.4083L35.2783 33.4083Z" fill="white"/>
<path d="M26.1581 12.7555C25.9971 13.6341 24.6843 13.3705 23.9412 13.358L24.5852 14.8766C25.2911 14.9268 26.1953 14.7887 26.1705 15.6924C26.1581 16.596 25.3655 16.4454 24.548 16.4956C24.3003 17.6126 23.743 18.3029 23.037 18.8677C22.1576 19.5705 21.1916 19.5956 19.9035 19.5956L23.3219 22.5953C23.8916 23.0471 24.1269 23.0471 23.8792 24.026C22.5788 24.6787 21.8356 23.2981 20.015 21.8046L19.9665 21.7641C19.3584 21.2566 18.8834 20.8603 18.2439 20.2734C17.8104 19.8718 16.6586 19.3321 17.1664 18.328C18.3677 17.2487 22.0338 19.2819 22.9132 16.4705L19.6187 16.4705C18.5411 16.4705 16.9682 16.8219 16.9682 15.6924C16.9682 14.5879 18.4297 14.9142 19.4824 14.9142L22.9132 14.9142C21.8604 11.8519 17.1168 14.5628 16.9806 12.6426C16.9063 11.5883 18.0705 11.7891 18.9375 11.8017C20.7581 11.8017 22.5911 11.8142 24.3994 11.8017C25.1673 11.7891 26.3563 11.626 26.1581 12.7555Z" fill="#44FAA2"/>
<path d="M34.8074 18.072C34.8074 17.3387 34.145 16.7539 33.3298 16.7539C32.5146 16.7539 31.8624 17.3387 31.8624 18.072C31.8624 18.8052 32.5146 19.3993 33.3298 19.3993C34.145 19.3993 34.8074 18.8052 34.8074 18.072Z" fill="white"/>
<path d="M13.3874 18.072C13.3874 17.3387 12.7352 16.7539 11.92 16.7539C11.1047 16.7539 10.4424 17.3387 10.4424 18.072C10.4424 18.8052 11.1047 19.3993 11.92 19.3993C12.7352 19.3993 13.3874 18.8052 13.3874 18.072Z" fill="white"/>
</g>
<defs>
<clipPath id="clip0_10_1674">
<rect width="51" height="43" fill="white"/>
</clipPath>
</defs>
</svg>
