<svg width="19" height="19" viewBox="0 0 19 19" fill="none" xmlns="http://www.w3.org/2000/svg">
<g clip-path="url(#clip0_10_1591)">
<path d="M2.34827 7.49617C2.24815 7.49707 2.14956 7.47147 2.06254 7.42195C1.9987 7.38607 1.94267 7.33782 1.89771 7.28002C1.85274 7.22222 1.81976 7.15604 1.80069 7.08534C1.78161 7.01464 1.77683 6.94085 1.78662 6.86828C1.79641 6.79571 1.82057 6.72582 1.8577 6.66271C2.57315 5.46855 4.74995 2.68132 9.49985 2.68132C11.5583 2.68132 13.3636 3.22199 14.8632 4.28775C16.0974 5.1624 16.7891 6.15246 17.1186 6.62931C17.1604 6.68941 17.1898 6.75727 17.2049 6.82889C17.2201 6.90051 17.2208 6.97444 17.207 7.04633C17.1931 7.11822 17.1651 7.18661 17.1244 7.24749C17.0837 7.30837 17.0313 7.36049 16.9702 7.4008C16.8453 7.48336 16.6932 7.51404 16.546 7.48633C16.3989 7.45862 16.2683 7.3747 16.182 7.25236C15.5857 6.39478 13.7673 3.7853 9.49985 3.7853C5.33441 3.7853 3.45114 6.1866 2.83774 7.21637C2.78845 7.30236 2.7171 7.37363 2.63105 7.42282C2.545 7.47201 2.44738 7.49733 2.34827 7.49617Z" fill="#6E16FF"/>
<path d="M11.8924 18.4058C11.845 18.4064 11.7978 18.401 11.7518 18.3899C8.30622 17.5364 7.01966 14.0919 6.96734 13.9487L6.95917 13.9172C6.93097 13.8177 6.23963 11.4557 7.30094 10.0723C7.78744 9.44148 8.52738 9.11789 9.50445 9.11789C10.4129 9.11789 11.0682 9.40029 11.5187 9.98475C11.8898 10.462 12.0382 11.0505 12.1818 11.6175C12.4835 12.7983 12.7014 13.4184 13.9553 13.4822C14.506 13.5101 14.8678 13.188 15.073 12.9137C15.6278 12.166 15.7242 10.947 15.306 9.87082C14.7687 8.48185 12.8617 5.86309 9.49926 5.86309C8.0639 5.86309 6.74505 6.32435 5.68746 7.19121C4.81206 7.90926 4.1185 8.92307 3.78453 9.96508C3.16518 11.9051 3.97749 14.9547 3.98528 14.9825C4.00425 15.0535 4.00881 15.1276 3.99871 15.2003C3.9886 15.2731 3.96402 15.3431 3.92643 15.4062C3.88883 15.4693 3.83898 15.5243 3.77981 15.5678C3.72064 15.6114 3.65335 15.6426 3.58191 15.6598C3.43758 15.6982 3.28396 15.6785 3.15397 15.6049C3.02398 15.5314 2.92796 15.4099 2.8865 15.2664C2.84939 15.1273 1.98179 11.8747 2.69724 9.63259C3.47652 7.20308 5.88154 4.75391 9.50037 4.75391C11.1729 4.75391 12.7529 5.32242 14.0718 6.39597C15.093 7.23091 15.9272 8.35234 16.3636 9.47339C16.9184 10.9047 16.7696 12.5111 15.9855 13.5605C15.463 14.2604 14.719 14.6263 13.8948 14.5866C11.7477 14.479 11.3617 12.9802 11.0805 11.8869C10.791 10.7655 10.6058 10.2248 9.50037 10.2248C8.89327 10.2248 8.4669 10.3918 8.20157 10.7377C7.83976 11.2108 7.81156 11.9504 7.85163 12.487C7.87794 12.8608 7.94134 13.2311 8.04089 13.5925C8.12921 13.8151 9.2792 16.6354 12.0334 17.3178C12.1046 17.3347 12.1717 17.3655 12.2309 17.4085C12.2901 17.4516 12.3401 17.5059 12.3781 17.5684C12.416 17.631 12.4412 17.7004 12.4521 17.7728C12.463 17.8451 12.4595 17.9189 12.4416 17.9898C12.408 18.1096 12.3361 18.2151 12.237 18.2902C12.1378 18.3653 12.0168 18.4059 11.8924 18.4058Z" fill="#6E16FF"/>
<path d="M7.46991 18.1514C7.39268 18.1515 7.31621 18.1361 7.24506 18.1061C7.17391 18.0761 7.10954 18.032 7.05578 17.9766C5.67682 16.5293 4.8968 14.911 4.60327 12.8875V12.8767C4.4385 11.5371 4.67971 9.6405 5.86162 8.3365C6.73405 7.37427 7.96049 6.88518 9.5005 6.88518C11.3218 6.88518 12.7531 7.732 13.6455 9.33027C14.2931 10.4914 14.4215 11.6484 14.4248 11.6959C14.4316 11.7692 14.4239 11.843 14.4021 11.9133C14.3803 11.9835 14.3449 12.0488 14.2978 12.1053C14.2507 12.1618 14.193 12.2085 14.1279 12.2427C14.0628 12.2769 13.9915 12.2979 13.9183 12.3045C13.7705 12.3206 13.6223 12.2778 13.5057 12.1856C13.3892 12.0933 13.3136 11.9589 13.2952 11.8114C13.1975 11.1171 12.9728 10.4468 12.6325 9.83383C11.9408 8.61333 10.8884 7.99287 9.49641 7.99287C8.29409 7.99287 7.35339 8.35468 6.70621 9.06902C5.7733 10.0988 5.59295 11.6852 5.72098 12.7346C5.97814 14.524 6.66577 15.9475 7.87996 17.2196C7.93064 17.2723 7.9702 17.3347 7.99629 17.403C8.02238 17.4713 8.03447 17.5441 8.03184 17.6172C8.02921 17.6903 8.01191 17.7621 7.98097 17.8284C7.95004 17.8946 7.9061 17.954 7.85176 18.0029C7.74712 18.0978 7.61114 18.1506 7.46991 18.1514Z" fill="#6E16FF"/>
<path d="M13.8227 16.557C12.6167 16.557 11.5914 16.223 10.7709 15.5591C9.12255 14.231 8.93775 12.0679 8.92959 11.9766C8.91797 11.8268 8.96636 11.6785 9.0641 11.5643C9.16184 11.4502 9.30093 11.3795 9.45078 11.3679C9.60062 11.3563 9.74894 11.4047 9.8631 11.5024C9.97727 11.6001 10.0479 11.7392 10.0595 11.8891C10.0636 11.921 10.2284 13.6903 11.499 14.7093C12.2508 15.3097 13.2557 15.548 14.494 15.4088C14.642 15.3909 14.7911 15.4322 14.9087 15.5239C15.0263 15.6155 15.1028 15.75 15.1215 15.8979C15.1296 15.971 15.1231 16.0449 15.1023 16.1154C15.0816 16.186 15.0469 16.2516 15.0005 16.3086C14.9541 16.3656 14.8968 16.4128 14.8319 16.4474C14.7671 16.482 14.696 16.5034 14.6228 16.5102C14.3572 16.5412 14.0901 16.5568 13.8227 16.557ZM14.7757 1.81036C14.3051 1.50421 12.6367 0.593567 9.49957 0.593567C6.20655 0.593567 4.53407 1.59958 4.16409 1.85526C4.13966 1.87026 4.11678 1.88766 4.09581 1.90721C4.0936 1.90935 4.09072 1.91066 4.08765 1.91092C4.02857 1.96251 3.98116 2.02609 3.94859 2.09744C3.91602 2.16879 3.89904 2.24626 3.89876 2.32469C3.89978 2.3982 3.91529 2.4708 3.94441 2.53831C3.97353 2.60583 4.01569 2.66693 4.06847 2.71812C4.12125 2.76931 4.18361 2.80959 4.25198 2.83664C4.32035 2.86369 4.39338 2.87698 4.4669 2.87575C4.58473 2.87567 4.69972 2.83954 4.79642 2.77222C4.81238 2.76034 6.25182 1.70274 9.50069 1.70274C12.7496 1.70274 14.1968 2.75663 14.2124 2.76442C14.3112 2.83769 14.4311 2.87677 14.5541 2.87575C14.6277 2.87688 14.7008 2.86346 14.7692 2.83628C14.8376 2.80909 14.8999 2.76867 14.9526 2.71733C15.0053 2.66599 15.0474 2.60475 15.0764 2.53711C15.1054 2.46948 15.1207 2.39678 15.1215 2.3232C15.1216 2.21298 15.0887 2.10527 15.027 2.01389C14.9654 1.92251 14.8779 1.85164 14.7757 1.81036Z" fill="#6E16FF"/>
</g>
<defs>
<clipPath id="clip0_10_1591">
<rect width="18.9742" height="18.9742" fill="white" transform="scale(1.00134)"/>
</clipPath>
</defs>
</svg>
