<svg width="6" height="7" viewBox="0 0 6 7" fill="none" xmlns="http://www.w3.org/2000/svg">
<path fill-rule="evenodd" clip-rule="evenodd" d="M5.59486 0H0.395228L0.00513792 0.868222C0.580023 0.853423 2.52539 0.66596 2.61265 1.47005L0.390106 1.47992L0 2.35307L2.73583 2.36294C2.67424 3.31501 1.07791 3.11276 0.220711 3.10289C0.215578 3.36928 0.179657 3.9563 0.246385 4.18322C0.657017 4.17829 1.47828 4.14377 1.84785 4.22763C2.29441 4.32629 2.48433 4.642 2.67938 4.96265C2.90009 5.33756 3.62896 6.83721 3.76755 7L5.13804 6.98027C4.8506 6.4327 4.08066 4.87879 3.78295 4.42988C3.45957 3.94151 3.36719 3.95137 3.17727 3.71459C3.71109 3.4926 3.96261 3.05849 4.11146 2.35307H5.20989L5.6 1.47005H4.07039C4.04986 1.43058 3.82401 0.897815 3.81374 0.863284L5.20989 0.858353L5.59486 0Z" fill="white"/>
</svg>
