<svg width="258" height="153" viewBox="0 0 258 153" fill="none" xmlns="http://www.w3.org/2000/svg">
<path fill-rule="evenodd" clip-rule="evenodd" d="M169.708 143.886L163.993 123.194L156.165 123.204L164.87 152.608L174.656 152.605L184.716 117.804L176.901 117.798L169.708 143.886Z" fill="white"/>
<path fill-rule="evenodd" clip-rule="evenodd" d="M42.7064 140.08C42.7064 133.917 41.8003 129.6 47.323 129.122C51.4749 128.763 53.2729 130.159 53.2729 134.41V141.794C53.2729 145.5 51.8227 146.935 48.1216 146.935C43.4681 146.935 42.7062 144.649 42.7062 140.08L42.7064 140.08ZM35.838 135.069V140.871C35.838 147.96 40.0635 152.868 47.0651 152.868C51.8521 152.868 55.2319 152.369 58.0298 148.783C60.272 145.91 60.4055 142.455 60.4055 137.575C60.4055 132.896 60.0285 129.973 57.9927 127.194C56.3336 124.93 53.0425 123.072 49.1783 123.072H47.0651C40.0958 123.072 35.838 128.007 35.838 135.07V135.069Z" fill="white"/>
<path fill-rule="evenodd" clip-rule="evenodd" d="M125.522 138.629H125.126V128.609C129.173 128.371 132.787 127.687 132.787 132.169V135.069C132.787 139.525 129.364 138.629 125.522 138.629V138.629ZM118.125 146.589C119.502 147.98 118.714 148.242 121.035 149.04C122.393 149.507 123.821 150.001 125.126 150.48V144.034C128.448 144.034 129.822 144.347 130.984 146.625C131.63 147.891 133.133 151.256 133.447 152.604H140.844C139.651 150.354 138.707 145.864 137.049 144.131C136.1 143.139 135.582 143.027 134.768 142.321C139.774 140.986 140.261 129.883 137.354 126.028C135.456 123.512 133.494 123.071 129.221 123.072C125.37 123.072 121.879 123.203 118.126 123.203V146.589L118.125 146.589Z" fill="white"/>
<path fill-rule="evenodd" clip-rule="evenodd" d="M244.009 130.326L247.488 142.57L240.565 142.585L244.009 130.326ZM230.136 152.606L238.056 152.605L239.275 148.131L248.887 148.122L250.124 152.591L258 152.605L247.985 123.196L240.169 123.204L230.136 152.606H230.136Z" fill="white"/>
<path fill-rule="evenodd" clip-rule="evenodd" d="M61.9906 152.604H78.6329C78.6329 151.781 78.4331 150.531 78.337 149.604C78.2795 149.049 78.3449 146.803 77.7082 146.803H69.1229V123.204H61.9904V152.604H61.9906Z" fill="white"/>
<path fill-rule="evenodd" clip-rule="evenodd" d="M193.94 152.604H210.583L210.041 146.937L201.073 146.935V123.204H193.94V152.604Z" fill="white"/>
<path fill-rule="evenodd" clip-rule="evenodd" d="M212.564 152.604H229.207L228.635 146.939L219.697 146.935V123.599C219.697 123.295 219.605 123.204 219.3 123.204H212.564V152.604H212.564Z" fill="white"/>
<path fill-rule="evenodd" clip-rule="evenodd" d="M6.9092 120.915C7.32852 121.748 8.35205 122.892 8.95066 123.674C10.4591 125.642 9.45817 125.181 12.0632 125.181C27.9384 125.181 29.2084 142.864 19.638 147.377C18.669 147.834 17.7308 148.131 16.4854 148.317C14.2082 148.657 14.918 147.876 13.2515 149.176C12.5613 149.715 8.9143 152.295 8.76111 152.868C9.6539 152.926 10.515 152.972 11.3488 153H14.4257C18.8634 152.821 22.6028 151.739 26.537 148.462C29.8294 145.72 30.8231 141.309 30.8228 135.726C30.8224 130.748 27.7845 126.56 24.8189 124.447C21.9769 122.421 16.3475 120.393 11.2706 120.699L6.9092 120.915Z" fill="white"/>
<path fill-rule="evenodd" clip-rule="evenodd" d="M99.3695 140.364L106.634 143.288V140.607C114.464 140.607 113.246 141.426 113.522 137.989C113.586 137.185 113.767 135.902 113.767 135.07H106.634V129.005C109.094 129.005 111.577 128.971 114.034 129.008C116.203 129.041 115.616 129.538 115.616 123.204H99.3695V140.365V140.364Z" fill="white"/>
<path fill-rule="evenodd" clip-rule="evenodd" d="M184.563 152.604H191.696V123.204H184.563V152.604Z" fill="white"/>
<path fill-rule="evenodd" clip-rule="evenodd" d="M96.8597 148.448L85.8298 148.424L85.824 123.204H80.6135V152.604H97.256L96.8597 148.448Z" fill="white"/>
<path fill-rule="evenodd" clip-rule="evenodd" d="M1.62891 148.913L1.58675 151.311L0.704017 151.27L0 152.715C2.81336 152.092 10.8682 146.982 13.0183 145.252C15.0677 143.603 16.5173 142.276 18.3706 140.443C19.2976 139.525 22.4817 135.742 22.762 134.542L7.57166 143.242L7.57534 126.761C7.59584 124.972 7.57514 125.373 6.61505 124.423C5.7886 123.605 4.01715 121.631 3.21391 121.094C3.21391 125.722 2.81317 130.683 2.81742 135.333C2.82032 138.441 2.72013 147.34 1.6293 148.913L1.62891 148.913Z" fill="white"/>
<path fill-rule="evenodd" clip-rule="evenodd" d="M106.634 143.288L99.3695 140.364V152.604H115.616V146.803H106.634V143.288Z" fill="white"/>
<path fill-rule="evenodd" clip-rule="evenodd" d="M96.8601 148.448L96.6921 146.939L87.7466 146.935V123.204H85.8245L85.8303 148.424L96.8601 148.448Z" fill="white"/>
<path fill-rule="evenodd" clip-rule="evenodd" d="M13.2512 125.972C16.4143 126.708 17.867 126.934 19.8904 128.97C22.2363 131.33 23.0254 133.256 23.0254 136.783C23.0254 139.816 21.5074 141.913 19.9548 143.475C16.9514 146.496 14.1896 146.077 13.251 146.672C27.0774 146.672 28.3941 130.304 17.9262 126.579C17.2115 126.325 14.0688 125.455 13.251 125.972H13.2512Z" fill="white"/>
<path fill-rule="evenodd" clip-rule="evenodd" d="M0.704104 151.249L1.92724 151.29L1.98584 148.894L1.98507 121.753H0.704104V151.249Z" fill="white"/>
<path fill-rule="evenodd" clip-rule="evenodd" d="M125.126 150.48C123.821 150.001 122.393 149.507 121.035 149.041C118.714 148.242 119.502 147.98 118.125 146.59V152.605H125.126V150.48Z" fill="white"/>
<path fill-rule="evenodd" clip-rule="evenodd" d="M98.7164 2.45958L92.3976 3.07235L92.5003 12.9568C92.4899 16.6112 92.722 41.7319 91.9087 43.0611C92.3034 45.2354 91.1809 55.0658 90.8728 57.84C90.4289 61.836 89.0495 68.143 89.0481 71.7841C90.6937 69.6558 93.2055 59.1663 93.8813 55.6563C95.0696 49.4823 95.6669 43.5799 96.4846 37.2755L97.9505 13.1894L98.0876 8.35465L134.331 7.86698C136.13 14.7884 133.769 47.1897 132.661 55.5843L130.317 80.7699L130.501 80.7927L133.592 69.9275L137.218 50.849C139.416 34.2723 140.41 17.0937 139.695 0L98.7164 2.45977V2.45958Z" fill="white"/>
<path fill-rule="evenodd" clip-rule="evenodd" d="M133.096 102.904C133.462 102.595 139.713 100.572 140.816 100.104C143.214 99.0874 145.767 97.8794 147.785 96.5639C151.814 94.2985 156.707 89.8647 158.978 86.2586C160.591 84.1463 162.785 79.4495 163.285 76.1988L156.942 83.8735L149.573 89.936C148.797 91.0059 141.109 94.947 139.085 95.4272C136.497 97.3209 124.555 99.2024 120.338 99.3885C113.307 99.699 106.2 98.8653 99.8596 97.029C88.6626 93.7861 76.9674 86.0263 73.0982 78.1234C75.1476 76.5122 75.7319 77.0701 77.102 74.2688C77.9035 72.6299 78.5317 70.4777 79.1746 68.74C74.1365 73.9999 68.295 76.5091 58.8713 73.5722C59.7881 75.1578 61.3479 76.7948 62.9683 77.7242C66.0867 79.5127 67.0473 78.5441 70.309 78.7765C71.9782 81.8585 72.4333 83.4938 74.3964 86.2273C78.9203 92.5266 86.3879 97.7471 94.0197 100.796C99.6955 103.064 105.924 104.526 112.686 104.972C116.342 105.213 119.971 105.097 123.57 104.648C125.678 104.385 131.951 102.862 133.096 102.904Z" fill="white"/>
<path fill-rule="evenodd" clip-rule="evenodd" d="M172.648 36.1395L171.921 37.4832L179.497 44.4847C178.556 46.3431 150.261 73.5305 149.088 73.7672L135.782 85.1625L128.151 90.9774L133.767 88.6656L143.642 82.3651L151.362 76.7405C152.114 75.7794 158.897 70.8101 160.432 69.5718C166.915 64.3432 172.04 60.0458 178.21 54.5388C179.314 53.5542 186.555 46.594 186.634 46.5614C187.866 44.9196 189.859 43.7366 188.235 41.9365C186.736 40.2758 176.844 31.5671 175.86 31.1217L172.649 36.1395H172.648Z" fill="white"/>
<path fill-rule="evenodd" clip-rule="evenodd" d="M159.528 19.6002L158.87 23.3529L168.41 28.4333L150.929 56.3317C149.734 58.7814 135.507 79.5452 134.551 80.1024L130.896 85.1858L133.578 82.6104L146.013 69.9887C146.064 69.7308 152.222 63.2191 153.185 61.9911C157.616 56.3402 161.581 49.9177 165.647 43.8834C166.896 42.0305 170.408 35.7143 171.568 34.5411L176.701 25.2161L176.507 25.0264L160.262 15.6661L159.528 19.5998V19.6002Z" fill="white"/>
<path fill-rule="evenodd" clip-rule="evenodd" d="M141.159 54.9613L135.267 72.1071L130.722 83.285L133.423 78.9742C134.243 77.1006 136.139 74.4962 137.248 72.5148C139.591 68.3254 141.827 63.3196 143.781 58.7823C144.704 56.6366 145.77 53.5456 146.76 51.7092C148.388 46.4203 151.004 40.6405 152.879 35.0837C153.837 32.2417 154.702 29.3877 155.592 26.4653C156.149 24.6382 157.36 19.0339 157.988 17.7923L159.613 10.1039L159.608 9.86529L148.774 6.96516L142.778 5.77687L142.235 12.843L152.534 14.5257L152.738 14.6837L141.158 54.9615L141.159 54.9613Z" fill="white"/>
<path fill-rule="evenodd" clip-rule="evenodd" d="M104.993 47.3071C104.765 48.1067 101.293 50.7723 100.561 57.1836C100.05 61.657 101.129 65.5746 103.093 68.6724C102.402 66.0064 101.855 64.2689 102.029 61.1479C102.128 59.3758 102.929 55.3167 103.873 54.2665C105.068 50.9227 109.109 47.2272 113.538 46.6123C118.761 45.8871 123.553 49.3971 125.093 52.1409C124.216 47.9737 117.444 41.7856 110.065 44.1791C107.272 45.0852 106.673 46.3341 104.993 47.3071H104.993Z" fill="white"/>
</svg>
