<svg width="57" height="56" viewBox="0 0 57 56" fill="none" xmlns="http://www.w3.org/2000/svg">
<path fill-rule="evenodd" clip-rule="evenodd" d="M38.713 38.038H45.9126V40.0833H38.713V38.038ZM37.1708 37.5262C37.1708 41.7014 36.8284 41.3996 38.948 41.3848L47.1973 41.3628C47.4361 40.3411 48.1267 36.5044 46.4253 36.5044H38.1982C37.5966 36.5044 37.1708 36.9278 37.1708 37.5262Z" fill="#0D47A1"/>
<path fill-rule="evenodd" clip-rule="evenodd" d="M13.7728 40.0831C16.855 40.0831 18.1436 40.5268 18.1436 38.8055C18.1436 37.6052 16.5645 38.0378 13.5154 38.0378C12.0547 38.0378 12.5249 40.0831 13.7726 40.0831H13.7728Z" fill="#0D47A1"/>
<path fill-rule="evenodd" clip-rule="evenodd" d="M9.17519 42.3841H49.0695C51.599 42.3841 51.0781 39.735 51.0781 37.5257C51.0781 36.0032 49.9208 35.4804 48.2077 35.4804H10.037C6.18298 35.4804 7.09832 42.3841 9.17519 42.3841ZM42.7822 14.5157L48.7822 33.6911C53.3224 33.6911 53.374 36.6439 53.374 39.827C53.374 45.6481 46.8252 44.3301 46.4862 44.4294C45.6307 44.9891 45.4096 45.9648 43.6158 45.9648C42.3222 45.9648 41.5969 45.3556 41.3199 44.4294C39.4289 44.4294 18.4683 44.0078 17.2799 44.7462C16.4079 45.2856 16.3955 45.9648 14.9157 45.9648C13.4341 45.9648 13.4217 45.2856 12.5518 44.7462C11.4999 44.0945 5.4449 45.1659 5.4449 41.1067C5.4449 38.2035 4.96538 36.3164 6.50077 34.8897C7.16197 34.2767 7.69315 33.6913 8.88764 33.6913H46.486L40.486 14.0042C40.486 12.7688 42.7822 12.2973 42.7822 14.5157Z" fill="#0D47A1"/>
<path fill-rule="evenodd" clip-rule="evenodd" d="M22.7562 30.1405C21.8894 30.3301 19.1806 30.3301 18.3229 30.1405C17.8714 28.6507 19.2439 28.9577 20.4628 28.9577C21.6998 28.9667 23.2166 28.6055 22.7562 30.1405ZM19.2619 21.1023C19.5238 22.6012 22.1241 22.4296 21.8081 20.5335C21.5643 19.0166 18.9369 19.1972 19.2619 21.1023ZM21.2302 27.6304C20.7878 26.9622 20.9865 26.0684 21.9255 26.4927C22.3679 26.7004 22.5124 27.8019 21.2302 27.6304ZM19.8398 27.6304C18.5576 27.811 18.7021 26.7004 19.1536 26.4927C20.0836 26.0684 20.2822 26.9713 19.8398 27.6304ZM21.6546 25.5808C20.544 25.3189 20.9142 24.3709 21.5372 24.3077C22.1512 24.2445 22.711 25.0751 21.6546 25.5808ZM19.4154 25.5808C18.359 25.0751 18.9278 24.2445 19.5418 24.3077C20.1558 24.3709 20.535 25.3189 19.4154 25.5808ZM19.6953 18.204C23.0632 17.0393 24.8419 22.222 21.4289 23.4138C18.0159 24.6147 16.183 19.4049 19.6953 18.204ZM22.9909 16.8677C21.8533 17.0302 21.79 16.0009 22.3047 15.7481C23.1986 15.2967 23.5236 16.1725 22.9909 16.8677ZM20.6072 16.94C19.5599 16.7142 19.7675 15.7301 20.4628 15.6668C21.2664 15.6036 21.5101 16.5156 20.6072 16.94ZM18.0881 16.8677C17.5464 16.1725 17.8714 15.2967 18.7653 15.7481C19.28 16.0009 19.2168 17.0302 18.0881 16.8677ZM22.3499 14.8C21.9074 14.2041 21.8262 13.3193 22.7923 13.554C23.4424 13.7166 23.632 14.7459 22.3499 14.8ZM20.4628 14.8091C19.614 14.3576 19.7585 13.4457 20.5982 13.545C21.3296 13.6353 21.465 14.5833 20.4628 14.8091ZM18.7202 14.8C17.438 14.7459 17.6276 13.7166 18.2777 13.554C19.2439 13.3193 19.1716 14.2041 18.7202 14.8ZM16.4629 29.1834C16.797 31.5129 18.684 31.558 21.0587 31.558C23.5146 31.5671 24.6432 30.7996 24.6523 28.2985C24.6703 25.951 24.6523 23.6034 24.6523 21.2559C24.6523 13.5721 25.7629 11.983 20.0113 11.9649C17.5735 11.9559 16.4268 12.8136 16.4177 15.2605C16.4087 17.274 16.3004 28.1089 16.4629 29.1834Z" fill="#5CB1FF"/>
</svg>
