<svg width="27" height="27" viewBox="0 0 27 27" fill="none" xmlns="http://www.w3.org/2000/svg">
<g clip-path="url(#clip0_10_1730)">
<path d="M24.2568 20.2818H9.3683C8.21443 20.2818 7.6375 20.2818 7.16355 20.3914C6.53242 20.5379 5.95695 20.8256 5.49502 21.2256C5.03308 21.6256 4.70094 22.1238 4.532 22.6701" stroke="white" stroke-width="1.68212"/>
<path d="M9.17176 10.2715H19.1292M9.17176 13.9582H15.3952M23.4856 22.9117H9.17176M11.6611 26.0718C8.14117 26.0718 6.37994 26.0718 5.28711 25.1459C4.19303 24.221 4.19303 22.7305 4.19303 19.7516V11.3248C4.19303 8.34593 4.19303 6.85544 5.28711 5.9306C6.37994 5.0047 8.14117 5.0047 11.6611 5.0047H16.6399C20.1598 5.0047 21.921 5.0047 23.0139 5.9306C24.108 6.85544 24.108 8.34593 24.108 11.3248M16.6399 26.0718C20.1598 26.0718 21.921 26.0718 23.0139 25.1459C24.108 24.221 24.108 22.7305 24.108 19.7516V15.5382" stroke="white" stroke-width="2" stroke-linecap="round"/>
</g>
<defs>
<clipPath id="clip0_10_1730">
<rect width="26.9139" height="26.9139" fill="white" transform="scale(1.00319)"/>
</clipPath>
</defs>
</svg>
