<svg width="51" height="37" viewBox="0 0 51 37" fill="none" xmlns="http://www.w3.org/2000/svg">
<g filter="url(#filter0_d_815_191)">
<path fill-rule="evenodd" clip-rule="evenodd" d="M36.6579 22.2421C36.6579 20.2529 38.3057 17.8923 40.1033 17.8923L40.2974 17.8921C41.7875 17.8897 42.89 17.8879 44.0232 19.2273C46.5115 22.1537 44.2062 26.592 41.618 26.592H40.1033C38.3889 26.592 36.6579 24.1783 36.6579 22.2421ZM26.0968 17.2027V18.352C27.9441 18.8119 30.8053 18.7214 33.3748 18.64C34.3128 18.6104 35.212 18.5819 36.0087 18.5819C35.8854 19.0733 35.8031 19.1531 35.7412 19.2132C35.6695 19.2828 35.6251 19.3258 35.576 19.9523C35.2522 19.9523 34.8492 19.9356 34.4076 19.9173H34.4076C32.6471 19.8443 30.2744 19.7459 29.8752 20.58C29.1954 22.0172 31.5693 21.9162 33.7129 21.825H33.7129C34.2198 21.8034 34.7138 21.7824 35.1515 21.7824C35.1515 22.985 35.2006 23.2358 35.2577 23.5277C35.2917 23.7014 35.3285 23.8897 35.3596 24.3021C34.5286 24.3021 32.9989 24.3145 31.0609 24.3301L31.06 24.3301C23.1571 24.3939 8.46682 24.5124 6.68911 24.0722C6.31434 22.3631 6.39108 17.3923 6.44413 13.9556C6.45941 12.9658 6.47273 12.1032 6.47273 11.4825H40.5361V16.0622C39.6423 16.0622 39.2539 16.2349 38.8629 16.4089C38.4929 16.5735 38.1205 16.7391 37.3153 16.7606C36.6826 16.7771 35.713 16.7492 34.5985 16.7171H34.5985C31.5203 16.6285 27.3372 16.5082 26.0968 17.2027ZM6.47273 3.4636C6.47273 2.5176 7.6545 2.08437 8.62821 2.08437H38.3806C40.5631 2.08437 40.5517 3.29908 40.5382 4.72247C40.5372 4.83512 40.5361 4.94907 40.5361 5.06384H6.47273V3.4636ZM4.75 5.06384V22.7019C4.75 26.487 8.13781 26.3087 10.5508 26.1817C10.9503 26.1607 11.323 26.1411 11.6492 26.1411L34.7271 26.1322C34.9822 26.1288 35.1907 26.1188 35.3665 26.1104C36.0854 26.0761 36.2575 26.0678 36.8326 26.6362C38.7884 28.5901 41.2019 29.0498 43.5654 27.7501L44.7222 26.9191C47.2772 24.4789 47.3438 20.4651 45.3381 18.2813C44.2252 17.0726 43.9855 16.9643 43.1548 16.5887C42.8735 16.4615 42.5244 16.3037 42.0508 16.0622C42.0508 15.7689 42.0582 15.187 42.068 14.4213V14.4212C42.114 10.8251 42.2118 3.17435 41.8344 2.31425C41.4016 1.29752 40.4362 0.484131 39.0297 0.484131H7.97907C5.49069 0.484131 4.75 2.42034 4.75 5.06384ZM11.5946 17.3853C10.0638 17.2577 10.0743 16.6187 10.0889 15.7284C10.0904 15.6392 10.0919 15.5474 10.0919 15.4533C10.0919 14.6854 10.769 14.4047 11.5946 14.3882C11.1184 15.3797 11.3065 16.1719 11.5518 17.2045L11.5946 17.3853ZM8.38281 15.6679C8.38281 17.5835 9.68735 18.8797 11.8093 18.8797C12.4074 18.8797 12.4316 18.8165 12.4571 18.7499C12.4794 18.6915 12.5028 18.6304 12.9157 18.6073C13.2426 18.5891 13.3122 18.6397 13.398 18.702C13.5073 18.7813 13.6428 18.8797 14.3688 18.8797C18.6622 18.8797 18.4393 12.6791 14.5835 12.6791C14.034 12.6791 13.713 12.7324 13.4291 12.7795L13.4291 12.7795C13.2949 12.8018 13.169 12.8227 13.0312 12.836C13.0312 12.836 8.38281 11.9608 8.38281 15.6679ZM22.4134 14.0497C22.3563 13.845 22.3217 13.721 22.2871 13.323C22.4605 13.1496 22.799 12.8937 23.1458 12.8937H37.4709C37.9745 12.8937 38.3296 13.2487 38.3296 13.7441C38.3296 14.5361 37.292 14.4881 35.9431 14.4258C35.5483 14.4076 35.1267 14.3881 34.6967 14.3881H22.5018C22.4669 14.2413 22.4381 14.138 22.4134 14.0497Z" fill="white"/>
</g>
<defs>
<filter id="filter0_d_815_191" x="0.75" y="0.484131" width="50" height="36" filterUnits="userSpaceOnUse" color-interpolation-filters="sRGB">
<feFlood flood-opacity="0" result="BackgroundImageFix"/>
<feColorMatrix in="SourceAlpha" type="matrix" values="0 0 0 0 0 0 0 0 0 0 0 0 0 0 0 0 0 0 127 0" result="hardAlpha"/>
<feOffset dy="4"/>
<feGaussianBlur stdDeviation="2"/>
<feComposite in2="hardAlpha" operator="out"/>
<feColorMatrix type="matrix" values="0 0 0 0 0 0 0 0 0 0 0 0 0 0 0 0 0 0 0.25 0"/>
<feBlend mode="normal" in2="BackgroundImageFix" result="effect1_dropShadow_815_191"/>
<feBlend mode="normal" in="SourceGraphic" in2="effect1_dropShadow_815_191" result="shape"/>
</filter>
</defs>
</svg>
