<svg width="167" height="97" viewBox="0 0 167 97" fill="none" xmlns="http://www.w3.org/2000/svg">
<path fill-rule="evenodd" clip-rule="evenodd" d="M109.85 90.8344L106.15 77.4163L101.083 77.4226L106.718 96.4903L113.053 96.488L119.564 73.9214L114.506 73.9172L109.85 90.8344Z" fill="#6E16FF"/>
<path fill-rule="evenodd" clip-rule="evenodd" d="M27.6429 88.3658C27.6429 84.3693 27.0564 81.5699 30.6312 81.26C33.3186 81.0271 34.4825 81.9327 34.4825 84.6894V89.4771C34.4825 91.8805 33.5438 92.8114 31.1482 92.8114C28.136 92.8114 27.6429 91.3285 27.6429 88.3658ZM23.1971 85.1169V88.8787C23.1971 93.4762 25.9321 96.6587 30.4642 96.6587C33.5626 96.6587 35.7503 96.3352 37.5615 94.0096C39.0128 92.1464 39.0992 89.9059 39.0992 86.7412C39.0992 83.7071 38.8552 81.8116 37.5374 80.0099C36.4635 78.5418 34.3333 77.3368 31.832 77.3368H30.4641C25.9529 77.3368 23.197 80.5367 23.197 85.1168L23.1971 85.1169Z" fill="#E7162E"/>
<path fill-rule="evenodd" clip-rule="evenodd" d="M81.2493 87.4256H80.9928V80.928C83.6126 80.7735 85.9516 80.33 85.9516 83.2364V85.1172C85.9516 88.0067 83.7363 87.4256 81.2493 87.4256ZM76.4616 92.5877C77.3528 93.4891 76.8428 93.6591 78.3452 94.1769C79.2238 94.4796 80.1482 94.7999 80.9928 95.1105V90.931C83.143 90.931 84.0325 91.1337 84.7846 92.611C85.2027 93.432 86.1754 95.6138 86.379 96.4882H91.1667C90.3945 95.0288 89.7838 92.1173 88.7105 90.9933C88.0963 90.35 87.7611 90.2777 87.234 89.8195C90.4744 88.9542 90.7896 81.7539 88.9077 79.2543C87.6793 77.6227 86.4091 77.3372 83.6431 77.3372C81.1509 77.3372 78.8911 77.4227 76.4615 77.4227V92.5877H76.4616Z" fill="#6E16FF"/>
<path fill-rule="evenodd" clip-rule="evenodd" d="M157.944 82.0414L160.196 89.9807L155.715 89.9905L157.944 82.0414ZM148.964 96.4892L154.09 96.4882L154.879 93.5869L161.101 93.5813L161.902 96.4791L167 96.4882L160.517 77.4177L155.458 77.4229L148.963 96.4892H148.964Z" fill="#6E16FF"/>
<path fill-rule="evenodd" clip-rule="evenodd" d="M40.1258 96.4884H50.8982C50.8982 95.9545 50.7688 95.1436 50.7066 94.5427C50.6694 94.1831 50.7116 92.7267 50.2997 92.7267H44.7425V77.4231H40.1258V96.4885V96.4884Z" fill="#E7162E"/>
<path fill-rule="evenodd" clip-rule="evenodd" d="M125.535 96.488H136.308L135.957 92.8126L130.152 92.8117V77.4226H125.535V96.488Z" fill="#6E16FF"/>
<path fill-rule="evenodd" clip-rule="evenodd" d="M137.59 96.4884H148.363L147.993 92.8148L142.207 92.8121V77.6795C142.207 77.4825 142.148 77.4231 141.951 77.4231H137.59V96.4885V96.4884Z" fill="#6E16FF"/>
<path fill-rule="evenodd" clip-rule="evenodd" d="M4.4721 75.9389C4.74354 76.479 5.40609 77.221 5.79364 77.7276C6.76999 79.0039 6.12215 78.7053 7.80827 78.7053C18.084 78.7053 18.9061 90.1723 12.7114 93.0984C12.0841 93.3947 11.4768 93.5872 10.6707 93.708C9.19675 93.9287 9.65618 93.4221 8.5775 94.2652C8.13074 94.6144 5.77008 96.2876 5.67089 96.6592C6.24881 96.6969 6.80606 96.7268 7.34587 96.7447H9.33753C12.2099 96.6283 14.6304 95.9267 17.177 93.8022C19.3082 92.0241 19.9514 89.1632 19.9511 85.5432C19.9508 82.3152 17.9845 79.5996 16.0647 78.2289C14.2253 76.9154 10.5814 75.6003 7.29526 75.7985L4.4721 75.9389Z" fill="#E7162E"/>
<path fill-rule="evenodd" clip-rule="evenodd" d="M64.3209 88.551L69.0232 90.4467V88.7083C74.0913 88.7083 73.3031 89.239 73.4814 87.0108C73.5229 86.4894 73.64 85.6569 73.64 85.1175H69.0233V81.1848C70.6154 81.1848 72.2229 81.1631 73.8131 81.1869C75.2168 81.208 74.8369 81.5307 74.8369 77.4231H64.321V88.5511L64.3209 88.551Z" fill="#6E16FF"/>
<path fill-rule="evenodd" clip-rule="evenodd" d="M119.465 96.488H124.082V77.4226H119.465V96.488Z" fill="#6E16FF"/>
<path fill-rule="evenodd" clip-rule="evenodd" d="M62.6957 93.7924L55.5562 93.7771L55.5524 77.4226H52.1798V96.488H62.9522L62.6957 93.7924Z" fill="#E7162E"/>
<path fill-rule="evenodd" clip-rule="evenodd" d="M1.05453 94.0942L1.02714 95.649L0.455682 95.6224L0 96.5599C1.82103 96.156 7.03488 92.8418 8.42651 91.7201C9.75315 90.6508 10.6915 89.7904 11.891 88.6015C12.4911 88.0066 14.5521 85.5537 14.7334 84.7752L4.9009 90.4168L4.90328 79.7292C4.91655 78.5695 4.9032 78.8297 4.28164 78.2133C3.74668 77.6828 2.60003 76.4028 2.08013 76.0547C2.08013 79.0559 1.82086 82.2726 1.82358 85.2881C1.82537 87.3039 1.76063 93.0744 1.05453 94.0941V94.0942Z" fill="#6E16FF"/>
<path fill-rule="evenodd" clip-rule="evenodd" d="M69.0232 90.4465L64.3209 88.5509V96.4882H74.8368V92.7264H69.0232V90.4465Z" fill="#E7162E"/>
<path fill-rule="evenodd" clip-rule="evenodd" d="M62.6964 93.7924L62.5875 92.814L56.7972 92.8117V77.4226H55.553L55.5569 93.7771L62.6964 93.7924Z" fill="#6E16FF"/>
<path fill-rule="evenodd" clip-rule="evenodd" d="M8.57807 79.218C10.6255 79.695 11.5657 79.8414 12.8755 81.1618C14.394 82.6924 14.9048 83.941 14.9048 86.2286C14.9048 88.1952 13.9221 89.5549 12.9172 90.5677C10.9732 92.5269 9.18559 92.2553 8.57807 92.6407C17.5277 92.6407 18.38 82.0268 11.6042 79.6116C11.1417 79.4467 9.10724 78.8821 8.57807 79.218Z" fill="#FF7585"/>
<path fill-rule="evenodd" clip-rule="evenodd" d="M0.455892 95.6086L1.24766 95.6352L1.2856 94.0816L1.28517 76.4819H0.455892V95.6086Z" fill="#4F92FF"/>
<path fill-rule="evenodd" clip-rule="evenodd" d="M80.9927 95.1107C80.1481 94.8002 79.2237 94.4798 78.3452 94.1771C76.8427 93.6595 77.3527 93.4894 76.4615 92.5879V96.4883H80.9927V95.1106V95.1107Z" fill="#E7162E"/>
<path d="M107.064 0H59.9357C55.8226 0 52.4883 3.28559 52.4883 7.33857V48.3655C52.4883 52.4185 55.8226 55.7041 59.9357 55.7041H107.064C111.177 55.7041 114.511 52.4185 114.511 48.3655V7.33857C114.511 3.28559 111.177 0 107.064 0Z" fill="url(#paint0_linear_10_2832)"/>
<path fill-rule="evenodd" clip-rule="evenodd" d="M74.4574 9.804L72.1847 10.0248L72.2216 13.5866C72.2179 14.9034 72.3013 23.9552 72.0089 24.4342C72.1509 25.2177 71.7471 28.7599 71.6363 29.7596C71.4766 31.1994 70.9805 33.4721 70.98 34.7841C71.5719 34.0173 72.4753 30.2375 72.7184 28.9727C73.1459 26.748 73.3607 24.6211 73.6548 22.3494L74.1821 13.6704L74.2313 11.9282L87.2675 11.7525C87.9145 14.2465 87.0653 25.9219 86.6666 28.9468L85.8236 38.022L85.8899 38.0302L87.0017 34.1151L88.3057 27.2404C89.0963 21.2672 89.4541 15.0772 89.1967 8.91772L74.4575 9.80412L74.4574 9.804Z" fill="#FFFEFE"/>
<path fill-rule="evenodd" clip-rule="evenodd" d="M86.8228 45.9973C86.9543 45.8863 89.2029 45.1572 89.5997 44.9887C90.4621 44.6222 91.3802 44.1869 92.106 43.7129C93.5553 42.8966 95.3151 41.299 96.1319 39.9995C96.7122 39.2384 97.5013 37.546 97.681 36.3747L95.3997 39.1402L92.7493 41.3247C92.4702 41.7102 89.705 43.1303 88.9769 43.3033C88.0462 43.9857 83.7508 44.6637 82.2339 44.7307C79.7051 44.8425 77.1489 44.5421 74.8682 43.8804C70.8409 42.7119 66.6343 39.9157 65.2426 37.0681C65.9797 36.4875 66.1899 36.6886 66.6827 35.6791C66.971 35.0886 67.1969 34.3131 67.4282 33.6869C65.6161 35.5822 63.515 36.4864 60.1254 35.4282C60.4552 35.9995 61.0163 36.5894 61.5991 36.9242C62.7207 37.5687 63.0662 37.2197 64.2394 37.3034C64.8398 38.414 65.0034 39.0032 65.7095 39.9882C67.3367 42.258 70.0226 44.1392 72.7677 45.2378C74.8091 46.0548 77.0495 46.5819 79.4815 46.7426C80.7965 46.8295 82.102 46.7874 83.3963 46.6258C84.1544 46.5313 86.4108 45.9824 86.8227 45.9973L86.8228 45.9973Z" fill="#FFFEFE"/>
<path fill-rule="evenodd" clip-rule="evenodd" d="M101.049 21.9399L100.787 22.4241L103.512 24.947C103.174 25.6167 92.9968 35.4132 92.5746 35.4986L87.7889 39.6047L85.044 41.7L87.0641 40.867L90.6159 38.5966L93.3924 36.5699C93.663 36.2236 96.1029 34.433 96.6551 33.9867C98.9869 32.1027 100.83 30.5542 103.049 28.5698C103.446 28.215 106.051 25.7071 106.079 25.6953C106.522 25.1038 107.239 24.6774 106.655 24.0288C106.116 23.4303 102.558 20.2923 102.204 20.1318L101.049 21.9399H101.049Z" fill="#FFFEFE"/>
<path fill-rule="evenodd" clip-rule="evenodd" d="M96.3294 15.9805L96.0929 17.3327L99.5244 19.1634L93.2369 29.2162C92.807 30.0989 87.6896 37.5808 87.3457 37.7816L86.0311 39.6133L86.9959 38.6854L91.4682 34.1374C91.4868 34.0444 93.7016 31.698 94.048 31.2555C95.6418 29.2193 97.068 26.905 98.5304 24.7307C98.9795 24.063 100.243 21.7871 100.66 21.3643L102.506 18.0042L102.437 17.9359L96.5933 14.563L96.3293 15.9805H96.3294Z" fill="#FFFEFE"/>
<path fill-rule="evenodd" clip-rule="evenodd" d="M89.7226 28.7222L87.6036 34.9005L85.9688 38.9283L86.9401 37.375C87.2353 36.6998 87.9172 35.7614 88.3158 35.0474C89.1587 33.5378 89.9631 31.7341 90.6657 30.099C90.9979 29.3258 91.3811 28.212 91.7372 27.5503C92.3228 25.6445 93.2639 23.5619 93.9379 21.5596C94.2827 20.5355 94.5937 19.507 94.914 18.4541C95.1142 17.7956 95.5499 15.7763 95.7756 15.3289L96.3604 12.5584L96.3585 12.4725L92.4617 11.4275L90.3051 10.9993L90.1099 13.5454L93.8141 14.1518L93.8876 14.2087L89.7225 28.7222H89.7226Z" fill="#FFFEFE"/>
<path fill-rule="evenodd" clip-rule="evenodd" d="M76.7143 25.9641C76.6323 26.2523 75.3837 27.2128 75.1204 29.523C74.9366 31.1349 75.3245 32.5465 76.0311 33.6629C75.7824 32.7022 75.5859 32.0762 75.6484 30.9515C75.6839 30.313 75.9721 28.8504 76.3118 28.4719C76.7413 27.267 78.1947 25.9353 79.788 25.7138C81.6668 25.4525 83.3903 26.7172 83.9441 27.7059C83.6286 26.2043 81.193 23.9746 78.5389 24.837C77.5343 25.1635 77.3187 25.6135 76.7143 25.9641Z" fill="#FFFEFE"/>
<defs>
<linearGradient id="paint0_linear_10_2832" x1="78.2677" y1="33.602" x2="110.213" y2="3.09742" gradientUnits="userSpaceOnUse">
<stop stop-color="#FF1842"/>
<stop offset="0.478431" stop-color="#9F2D92"/>
<stop offset="1" stop-color="#3140EE"/>
</linearGradient>
</defs>
</svg>
