<svg width="13" height="16" viewBox="0 0 13 16" fill="none" xmlns="http://www.w3.org/2000/svg">
<path fill-rule="evenodd" clip-rule="evenodd" d="M11.7703 1.84822C11.9162 1.60504 12.4674 0.308038 12.5323 0H0.729558L0.0324196 1.83201C3.46947 2.02656 5.88513 1.11866 7.58745 2.93446C7.74957 3.1128 7.74957 3.09659 7.87927 3.30735C8.02518 3.53433 8.18731 3.85857 8.25216 4.16661H0.729558L0 6.01484L8.23595 6.03105C8.07382 7.10107 6.82546 8.12246 5.62573 8.28459C4.16661 8.47914 2.2049 8.15489 0.745774 8.34944C0.761986 8.93309 0.616075 9.93826 0.924112 10.2787C1.00517 10.3922 1.08624 10.4408 1.21594 10.5543C1.32943 10.6678 1.34564 10.7165 1.44291 10.8137L3.64781 12.7917C3.891 13.0348 3.92342 13.1159 4.16661 13.3105L6.3553 15.3208C6.80925 15.8396 6.89031 16.0017 7.782 15.9855C8.38186 15.9855 9.19249 16.0342 9.74371 15.9531C9.58159 15.8072 9.5978 15.791 9.41946 15.5964L3.56675 10.1814C6.7444 10.1652 9.12763 9.87341 10.1977 6.01484L11.7865 5.99863L12.516 4.16661L10.1814 4.1504C9.88962 2.75612 9.58159 2.70749 9.17628 1.84822H11.7703Z" fill="#58BA4E"/>
</svg>
