<svg width="61" height="55" viewBox="0 0 61 55" fill="none" xmlns="http://www.w3.org/2000/svg">
<path d="M21.8671 20.9213L21.8671 20.9213C22.6078 20.5197 23.2388 20.462 24.0269 20.458V14.8128C23.681 14.724 23.3552 14.5636 23.0949 14.2675C22.902 14.051 22.7814 13.8428 22.71 13.6201C22.639 13.3984 22.6183 13.1678 22.6183 12.9101C22.6183 12.4157 22.8674 11.974 23.1839 11.6587C23.4976 11.3461 23.8963 11.1397 24.2172 11.1397H36.1988C36.416 11.1397 36.6362 11.2369 36.8229 11.3536C37.0116 11.4715 37.1777 11.6168 37.2898 11.7288L37.2908 11.7299L37.2908 11.7299C38.2113 12.6785 37.8751 14.4106 36.38 14.8121V20.458C37.1777 20.4613 37.8367 20.512 38.5967 20.9589C39.3617 21.4033 39.9131 21.9111 40.2918 22.5592C40.6699 23.2064 40.871 23.9855 40.9484 24.9651M21.8671 20.9213L40.8488 24.973M21.8671 20.9213L21.8655 20.9222C21.3787 21.1978 21.0371 21.4654 20.6696 21.8421M21.8671 20.9213L20.6696 21.8421M40.9484 24.9651L40.8488 24.973M40.9484 24.9651C40.9484 24.9651 40.9484 24.965 40.9484 24.9649L40.8488 24.973M40.9484 24.9651C40.994 25.5261 40.9961 27.227 40.9871 28.9836C40.9829 29.8086 40.9762 30.6471 40.9703 31.389C40.9639 32.1813 40.9585 32.8634 40.9578 33.3008M40.8488 24.973C40.915 25.7884 40.8889 29.0617 40.8703 31.3873C40.8635 32.2293 40.8578 32.9471 40.8578 33.3791M40.9578 33.3008C40.9323 33.2941 40.9065 33.2877 40.8803 33.2817L40.8578 33.3791M40.9578 33.3008C42.1497 33.6133 42.6314 34.6195 42.5727 35.5669C42.515 36.4977 41.9306 37.4075 40.9579 37.5407M40.9578 33.3008C40.9578 33.3278 40.9578 33.3539 40.9578 33.3791H40.8578M40.8578 33.3791L40.9579 37.5407M40.9579 37.5407C40.9578 37.5094 40.9578 37.4796 40.9578 37.4512H40.8578L40.8662 37.5508C40.8971 37.5482 40.9277 37.5448 40.9579 37.5407ZM40.9579 37.5407C40.9586 37.8479 40.9625 38.2906 40.9671 38.8192C40.976 39.8322 40.9877 41.1604 40.9849 42.4535C40.9826 43.4742 40.9713 44.4777 40.9425 45.2965C40.9138 46.1102 40.8676 46.7543 40.7921 47.047L40.792 47.0473C40.3774 48.6322 39.1964 49.8721 37.6859 50.2521L37.6854 50.2522C37.4338 50.3142 37.2402 50.3303 37.1006 50.3419C37.0675 50.3446 37.0375 50.3471 37.0104 50.3499C36.9371 50.3575 36.8957 50.3664 36.8686 50.3799C36.848 50.3901 36.832 50.4046 36.8176 50.4405C36.8011 50.4818 36.7887 50.5472 36.7819 50.6549C36.7751 50.7611 36.7742 50.8999 36.7762 51.0835C36.7774 51.1926 36.7796 51.317 36.782 51.4587C36.7879 51.7911 36.7954 52.2182 36.7954 52.7645V52.8196L36.7488 52.8491C36.7123 52.8721 36.6818 52.897 36.6524 52.9231C36.6435 52.931 36.6337 52.94 36.6236 52.9493C36.6034 52.9677 36.5815 52.9877 36.5614 53.0042C36.4915 53.0619 36.4088 53.1083 36.28 53.1083H24.5513C24.4193 53.1083 24.3346 53.0629 24.2627 53.0048C24.241 52.9873 24.2181 52.9665 24.197 52.9474C24.1876 52.9389 24.1785 52.9307 24.1701 52.9232C24.1405 52.897 24.11 52.8721 24.0735 52.8491L24.0269 52.8196V52.7645C24.0269 52.188 24.0362 51.746 24.0433 51.4077C24.0448 51.3373 24.0462 51.2714 24.0474 51.2097C24.0544 50.8463 24.0539 50.6405 24.0299 50.5187C24.0184 50.46 24.0035 50.4334 23.9911 50.4196C23.9802 50.4074 23.9631 50.3962 23.925 50.3872C23.8843 50.3777 23.8308 50.3731 23.753 50.3679L23.7269 50.3662C23.6565 50.3616 23.5721 50.3561 23.4743 50.3448L23.4734 50.3447C23.0216 50.2882 22.4484 50.0371 22.0867 49.8563L22.0864 49.8561C21.0066 49.3116 20.1489 48.3519 19.7342 47.1078L19.734 47.1075C19.6142 46.7432 19.5395 46.0751 19.4926 45.2606C19.4455 44.4418 19.426 43.4623 19.4209 42.4674C19.4145 41.2179 19.4309 39.9359 19.444 38.917C19.451 38.3657 19.4571 37.8914 19.458 37.541M40.9579 37.5407L19.5582 37.4512M19.458 37.541C19.4884 37.5451 19.5191 37.5484 19.5502 37.5508L19.5582 37.4512M19.458 37.541C19.4581 37.5101 19.4582 37.4801 19.4582 37.4512H19.5582M19.458 37.541C18.4894 37.4118 17.9009 36.502 17.8399 35.5706C17.7777 34.6218 18.2574 33.613 19.4582 33.3006M19.5582 37.4512C17.644 37.2977 17.1564 33.9299 19.5582 33.3791M19.4582 33.3006V33.3043V33.3126V33.3209V33.3293V33.3376V33.3459V33.3542V33.3625V33.3708V33.3791H19.5582M19.4582 33.3006V33.296V33.2877V33.2794V33.2711V33.2628V33.2545V33.2462V33.2379V33.2296V33.2213V33.213V33.2047V33.1964V33.1881V33.1797V33.1714V33.1631V33.1548V33.1465V33.1382V33.1299V33.1216V33.1133V33.105V33.0967V33.0884V33.0801V33.0718V33.0635V33.0552V33.0469V33.0385V33.0302V33.0219V33.0136V33.0053V32.997V32.9887V32.9804V32.9721V32.9638V32.9555V32.9472V32.9389V32.9306V32.9223V32.914V32.9057V32.8974V32.889V32.8807V32.8724V32.8641V32.8558V32.8475V32.8392V32.8309V32.8226V32.8143V32.806V32.7977V32.7894V32.7811V32.7728V32.7645V32.7562V32.7479V32.7396V32.7313V32.7229V32.7146V32.7063V32.698V32.6897V32.6814V32.6731V32.6648V32.6565V32.6482V32.6399V32.6316V32.6233V32.615V32.6067V32.5984V32.5901V32.5818V32.5735V32.5652V32.5569V32.5486V32.5402V32.5319V32.5236V32.5153V32.507V32.4987V32.4904V32.4821V32.4738V32.4655V32.4572V32.4489V32.4406V32.4323V32.424V32.4157V32.4074V32.3991V32.3908V32.3825V32.3742V32.3659V32.3576V32.3493V32.341V32.3327V32.3244V32.3161V32.3078V32.2994V32.2911V32.2828V32.2745V32.2662V32.2579V32.2496V32.2413V32.233V32.2247V32.2164V32.2081V32.1998V32.1915V32.1832V32.1749V32.1666V32.1583V32.15V32.1417V32.1334V32.1251V32.1168V32.1085V32.1002V32.0919V32.0836V32.0753V32.067V32.0587V32.0504V32.0421V32.0338V32.0255V32.0172V32.0089V32.0006V31.9923V31.984V31.9757V31.9674V31.9591V31.9508V31.9425V31.9342V31.9259V31.9176V31.9093V31.901V31.8927V31.8844V31.8761V31.8678V31.8595V31.8512V31.8429V31.8346V31.8263V31.818V31.8097V31.8014V31.7931V31.7848V31.7765V31.7682V31.7599V31.7516V31.7433V31.735V31.7267V31.7184V31.7101V31.7018V31.6935V31.6852V31.6769V31.6686V31.6603V31.652V31.6437V31.6354V31.6271V31.6188V31.6105V31.6023V31.594V31.5857V31.5774V31.5691V31.5608V31.5525V31.5442V31.5359V31.5276V31.5193V31.511V31.5027V31.4944V31.4861V31.4778V31.4695V31.4612V31.4529V31.4446V31.4363V31.428V31.4197V31.4114V31.4032V31.3949V31.3866V31.3783V31.37V31.3617V31.3534V31.3451V31.3368V31.3285V31.3202V31.3119V31.3036V31.2953V31.287V31.2787V31.2705V31.2622V31.2539V31.2456V31.2373V31.229V31.2207V31.2124V31.2041V31.1958V31.1875V31.1792V31.1709V31.1626V31.1544V31.1461V31.1378V31.1295V31.1212V31.1129V31.1046V31.0963V31.088V31.0797V31.0714V31.0632V31.0549V31.0466V31.0383V31.03V31.0217V31.0134V31.0051V30.9968V30.9885V30.9803V30.972V30.9637V30.9554V30.9471V30.9388V30.9305V30.9222V30.9139V30.9057V30.8974V30.8891V30.8808V30.8725V30.8642V30.8559V30.8476V30.8394V30.8311V30.8228V30.8145V30.8062V30.7979V30.7896V30.7814V30.7731V30.7648V30.7565V30.7482V30.7399V30.7316V30.7234V30.7151V30.7068V30.6985V30.6902V30.6819V30.6736V30.6654V30.6571V30.6488V30.6405V30.6322V30.6239V30.6157V30.6074V30.5991V30.5908V30.5825V30.5742V30.566V30.5577V30.5494V30.5411V30.5328V30.5245V30.5163V30.508V30.4997V30.4914V30.4831V30.4748V30.4666V30.4583V30.45V30.4417V30.4334V30.4252V30.4169V30.4086V30.4003V30.392V30.3838V30.3755V30.3672V30.3589V30.3506V30.3424V30.3341V30.3258V30.3175V30.3092V30.301V30.2927V30.2844V30.2761V30.2679V30.2596V30.2513V30.243V30.2347V30.2265V30.2182V30.2099V30.2016V30.1934V30.1851V30.1768V30.1685V30.1603V30.152V30.1437V30.1354V30.1272V30.1189V30.1106V30.1023V30.0941V30.0858V30.0775V30.0692V30.061V30.0527V30.0444V30.0361V30.0279V30.0196V30.0113V30.0031V29.9948V29.9865V29.9782V29.97V29.9617V29.9534V29.9451V29.9369V29.9286V29.9203V29.9121V29.9038V29.8955V29.8873V29.879V29.8707V29.8624V29.8542V29.8459V29.8376V29.8294V29.8211V29.8128V29.8046V29.7963V29.788V29.7798V29.7715V29.7632V29.7549V29.7467V29.7384V29.7301V29.7219V29.7136V29.7053V29.6971V29.6888V29.6805V29.6723V29.664V29.6558V29.6475V29.6392V29.631V29.6227V29.6144V29.6062V29.5979V29.5896V29.5814V29.5731V29.5648V29.5566V29.5483V29.5401V29.5318V29.5235V29.5153V29.507V29.4987V29.4905V29.4822V29.474V29.4657V29.4574V29.4492V29.4409V29.4327V29.4244V29.4161V29.4079V29.3996V29.3914V29.3831V29.3748V29.3666V29.3583V29.3501V29.3418V29.3335V29.3253V29.317V29.3088V29.3005V29.2923V29.284V29.2757V29.2675V29.2592V29.251V29.2427V29.2345V29.2262V29.218V29.2097V29.2014V29.1932V29.1849V29.1767V29.1684V29.1602V29.1519V29.1437V29.1354C19.4582 28.7194 19.4446 28.2786 19.4308 27.826C19.4045 26.9713 19.377 26.075 19.437 25.2255C19.5289 23.9231 19.8269 22.6943 20.6696 21.8421M19.4582 33.3006C19.4837 33.294 19.5096 33.2876 19.5358 33.2816L19.5582 33.3791M19.5582 33.3791L20.6696 21.8421M20.7326 33.1876V24.8917C20.7326 23.0179 22.1654 21.66 24.0456 21.66H36.3613C38.2415 21.66 39.6743 23.0179 39.6743 24.8917L39.6743 33.2888L39.6743 33.2896L39.6833 34.3731L39.6842 34.4723H39.7833L40.0271 34.4723L40.029 34.4723C40.1114 34.4707 40.1836 34.4681 40.2482 34.4657C40.383 34.4608 40.4848 34.4571 40.5785 34.4672C40.7046 34.4808 40.8079 34.5197 40.9378 34.6293L40.9382 34.6297C41.3129 34.9419 41.4129 35.3947 41.2805 35.7665C41.1493 36.135 40.7833 36.4393 40.1896 36.4393H39.7653H39.6644L39.6653 36.5402L39.6743 37.5325V37.5329V46.1101C39.6743 47.7417 38.258 49.1703 36.5238 49.1703H24.2984C22.3223 49.1703 20.7326 47.5719 20.7326 45.6045V37.5329V37.5325L20.7417 36.5402L20.7426 36.4393H20.6417H20.2173C19.4828 36.4393 19.1004 35.9416 19.0779 35.4512C19.0666 35.2045 19.1463 34.9609 19.3174 34.7795C19.4875 34.5992 19.7554 34.4723 20.136 34.4723C20.2126 34.4723 20.2936 34.4738 20.3769 34.4753C20.6535 34.4803 20.9548 34.4858 21.202 34.4389C21.365 34.408 21.5191 34.3522 21.6332 34.248C21.7511 34.1403 21.8161 33.9903 21.8161 33.7944C21.8161 33.6274 21.7679 33.4967 21.6787 33.4C21.5914 33.3053 21.474 33.2535 21.3537 33.2243C21.1664 33.1789 20.9425 33.1834 20.7606 33.187C20.7511 33.1872 20.7418 33.1874 20.7326 33.1876ZM36.28 20.5578V20.4578V20.5578ZM25.2291 50.4538H35.5931V51.9151H25.2291V50.4538ZM25.3104 14.834H35.0966V20.4578H25.3104V14.834ZM24.5513 12.342H35.8647C36.3017 12.342 36.554 12.668 36.5638 12.9944C36.5687 13.1569 36.5131 13.3162 36.3915 13.4351C36.2704 13.5537 36.0746 13.6408 35.7834 13.6408H24.6325C24.3414 13.6408 24.1449 13.5537 24.023 13.435C23.9006 13.3159 23.8444 13.1564 23.8488 12.9941C23.8576 12.6684 24.1093 12.342 24.5513 12.342ZM22.203 27.0497V32.124C22.203 32.3599 22.2773 32.5457 22.3985 32.6729C22.5191 32.7996 22.6803 32.8619 22.8411 32.8606C23.1689 32.8578 23.4775 32.5944 23.4775 32.124V27.0497C23.4775 26.8157 23.403 26.6307 23.2821 26.5034C23.1618 26.3767 23.001 26.3131 22.8402 26.3131C22.6795 26.3131 22.5187 26.3767 22.3984 26.5034C22.2775 26.6307 22.203 26.8157 22.203 27.0497ZM22.203 25.2168C22.203 25.6301 22.5127 25.9153 22.8369 25.9262C23.0015 25.9317 23.1662 25.8658 23.2873 25.7166C23.4068 25.5692 23.4775 25.349 23.4775 25.0542C23.4775 24.6944 23.1472 24.4718 22.8419 24.4667C22.6841 24.464 22.5217 24.5173 22.3989 24.6445C22.276 24.7719 22.203 24.9629 22.203 25.2168Z" fill="#0D47A1" stroke="#0D47A1" stroke-width="0.2"/>
<path fill-rule="evenodd" clip-rule="evenodd" d="M27.6546 34.2733C27.6546 32.63 28.4311 31.8084 28.5846 31.1312C29.0631 31.2576 28.729 31.6369 29.4423 31.6369C30.0112 31.6369 30.0744 30.8694 30.5348 29.9394C30.6703 29.6775 30.8057 29.5331 30.8689 29.2712H31.0134C31.0766 29.5511 31.194 29.6324 31.3294 29.8942C31.4378 30.12 31.5281 30.2825 31.6274 30.5173C31.8621 31.0861 31.8712 31.6369 32.5122 31.6369C33.0901 31.6369 32.8553 31.2486 33.2977 31.1312C33.4512 31.7813 35.3654 34.5623 33.2617 36.6661C32.0247 37.903 29.7493 37.8759 28.5575 36.5938C28.088 36.0792 27.6546 35.2214 27.6546 34.2733ZM27.9164 16.4229H33.2436V17.7501H27.9164V16.4229ZM26.8329 15.9262V18.2557C26.8329 18.644 27.0316 18.8336 27.4198 18.8336H33.7402C34.1284 18.8336 34.3271 18.644 34.3271 18.2557V15.9262C34.3271 15.538 34.1284 15.3394 33.7402 15.3394H27.4198C27.0316 15.3394 26.8329 15.538 26.8329 15.9262ZM29.2979 29.7769C28.6839 29.3615 28.413 28.7837 27.158 31.3479C25.3792 34.9415 27.0496 38.7788 31.0856 38.7788C34.4806 38.7788 36.5934 35.2033 34.7514 31.393C33.4874 28.7566 33.1804 29.3796 32.5845 29.7769C32.5213 29.506 31.6093 27.7002 30.9412 27.7002C30.282 27.7002 29.3611 29.506 29.2979 29.7769Z" fill="#3DC7E5"/>
</svg>
