<svg width="31" height="32" viewBox="0 0 31 32" fill="none" xmlns="http://www.w3.org/2000/svg">
<path fill-rule="evenodd" clip-rule="evenodd" d="M18.6987 12.3171C17.8485 13.161 16.6975 13.6319 15.4996 13.6267L15.4997 13.6266C14.3062 13.6221 13.1633 13.1444 12.3215 12.2985C11.4794 11.4528 11.0071 10.3076 11.008 9.11429C11.008 7.91622 11.4845 6.76758 12.3321 5.92123C13.1798 5.07489 14.3292 4.60037 15.5273 4.60205C16.7251 4.60401 17.8732 5.08212 18.7182 5.93112C19.5633 6.78017 20.0362 7.93022 20.0326 9.12805C20.029 10.3261 19.5489 11.4733 18.6987 12.3171ZM16.7531 7.85733C16.4189 7.52939 15.9679 7.34827 15.4996 7.35379C15.0356 7.35738 14.5921 7.54474 14.2658 7.87484C13.9395 8.20476 13.7575 8.65071 13.7594 9.11468C13.7594 9.58272 13.9458 10.0318 14.2776 10.3621C14.6094 10.6925 15.0589 10.8772 15.5272 10.8753C15.9955 10.8736 16.4436 10.6853 16.7728 10.3523C17.1019 10.0193 17.2847 9.56878 17.2811 9.10073C17.2775 8.63245 17.0875 8.18504 16.7531 7.85733Z" fill="#3342F0"/>
<path fill-rule="evenodd" clip-rule="evenodd" d="M3.43857 31.6416C2.41805 31.6385 1.45175 31.1822 0.800633 30.3965L0.80094 30.3958C0.146992 29.614 -0.126254 28.5821 0.0546304 27.5791L1.37191 20.2708C1.51537 19.4777 1.93281 18.7601 2.55125 18.2434C3.1697 17.7268 3.95009 17.4438 4.75591 17.4438H8.62165L7.65867 16.1471C6.19069 14.2188 5.459 11.8298 5.59502 9.40993C5.9457 4.12724 10.2585 0 15.414 0C20.5691 0 24.8821 4.12749 25.2225 9.42713C25.3585 11.8472 24.6268 14.2364 23.1588 16.1649L22.1925 17.4443H26.244C27.0498 17.4443 27.8302 17.7274 28.4487 18.2439C29.0671 18.7607 29.4845 19.4782 29.628 20.2713L30.9453 27.5901C31.1266 28.5931 30.8539 29.6247 30.2004 30.407C29.5471 31.1893 28.5803 31.6413 27.561 31.6416H3.43857ZM15.4142 2.75199C11.273 2.75199 8.56285 6.23628 8.33927 9.59295L8.33939 9.59258C8.2504 11.3587 8.79429 13.099 9.87334 14.5002L15.4141 21.9185L20.9546 14.4898C22.0337 13.0885 22.5778 11.3483 22.4886 9.58189C22.265 6.22553 19.5552 2.75199 15.4142 2.75199ZM4.08152 20.7636L2.7748 28.0683L2.75052 28.0685C2.71358 28.2712 2.76923 28.4799 2.90238 28.6373C3.03577 28.7944 3.23248 28.8836 3.43856 28.8803H27.537C27.7424 28.8834 27.9384 28.7946 28.0715 28.6382C28.2046 28.4818 28.2608 28.2743 28.2248 28.0721L26.9317 20.76C26.8713 20.4292 26.5803 20.1908 26.2439 20.196H20.1358L16.5177 25.0384C16.2581 25.3863 15.8495 25.5912 15.4156 25.5912C14.9816 25.5912 14.5731 25.3863 14.3132 25.0384L10.685 20.196H4.76955C4.43201 20.191 4.14054 20.4314 4.08152 20.7636Z" fill="#3342F0"/>
</svg>
