<svg width="35" height="35" viewBox="0 0 35 35" fill="none" xmlns="http://www.w3.org/2000/svg">
<path d="M17.4996 5.04639C14.1967 5.04639 11.029 6.35847 8.69351 8.69399C6.35798 11.0295 5.0459 14.1972 5.0459 17.5001C5.0459 24.3782 10.6218 29.9532 17.4996 29.9532C20.8025 29.9532 23.97 28.6411 26.3055 26.3057C28.6409 23.9702 29.953 20.8026 29.953 17.4998C29.953 14.1969 28.6409 11.0294 26.3055 8.69391C23.97 6.35845 20.8025 5.04639 17.4996 5.04639ZM16.2626 10.9404C16.2633 10.6128 16.394 10.2988 16.626 10.0674C16.8579 9.83604 17.1721 9.70609 17.4998 9.70609C17.8274 9.70609 18.1416 9.83604 18.3736 10.0674C18.6055 10.2988 18.7362 10.6128 18.737 10.9404V14.6301C18.7362 14.9577 18.6055 15.2716 18.3736 15.503C18.1416 15.7344 17.8274 15.8644 17.4998 15.8644C17.1721 15.8644 16.8579 15.7344 16.626 15.503C16.394 15.2716 16.2633 14.9577 16.2626 14.6301V10.9404ZM17.4996 23.8291C16.0227 23.8293 14.5925 23.312 13.4574 22.3672C12.3223 21.4224 11.554 20.1098 11.2862 18.6574C11.0184 17.205 11.2679 15.7047 11.9913 14.4172C12.7148 13.1297 13.8665 12.1363 15.2463 11.6097V13.8916C14.4581 14.3814 13.851 15.1147 13.5169 15.9804C13.1827 16.8461 13.1398 17.7971 13.3944 18.6894C13.6491 19.5817 14.1876 20.3668 14.9284 20.9257C15.6691 21.4846 16.5718 21.7869 17.4998 21.7869C18.4277 21.7869 19.3304 21.4846 20.0712 20.9257C20.8119 20.3668 21.3504 19.5817 21.6051 18.6894C21.8598 17.7971 21.8168 16.8461 21.4827 15.9804C21.1485 15.1147 20.5414 14.3814 19.7533 13.8916V11.6097C21.1329 12.1364 22.2845 13.1299 23.0078 14.4174C23.7311 15.7049 23.9805 17.2052 23.7127 18.6575C23.4448 20.1098 22.6766 21.4223 21.5416 22.3671C20.4066 23.3119 18.9764 23.8292 17.4996 23.8291Z" fill="#34D5C4"/>
</svg>
