<svg width="167" height="101" viewBox="0 0 167 101" fill="none" xmlns="http://www.w3.org/2000/svg">
<path fill-rule="evenodd" clip-rule="evenodd" d="M109.771 95.094L106.075 81.6854L101.011 81.6917L106.642 100.746L112.972 100.744L119.479 78.193L114.424 78.1888L109.771 95.094Z" fill="#0D47A1"/>
<path fill-rule="evenodd" clip-rule="evenodd" d="M27.6234 92.6271C27.6234 88.6335 27.0374 85.8361 30.6096 85.5264C33.2951 85.2936 34.4581 86.1986 34.4581 88.9534V93.7377C34.4581 96.1393 33.5201 97.0696 31.1262 97.0696C28.1162 97.0696 27.6234 95.5877 27.6234 92.6271ZM23.1808 89.3805V93.1397C23.1808 97.7339 25.9139 100.914 30.4427 100.914C33.5389 100.914 35.7251 100.591 37.535 98.2669C38.9852 96.405 39.0716 94.1662 39.0716 91.0037C39.0716 87.9718 38.8278 86.0776 37.5109 84.2772C36.4378 82.8101 34.309 81.606 31.8096 81.606H30.4426C25.9346 81.606 23.1807 84.8037 23.1807 89.3804L23.1808 89.3805Z" fill="#E7162E"/>
<path fill-rule="evenodd" clip-rule="evenodd" d="M81.1911 91.6876H80.9348V85.1946C83.5527 85.0402 85.89 84.5971 85.89 87.5014V89.3808C85.89 92.2683 83.6763 91.6876 81.1911 91.6876ZM76.4068 96.846C77.2974 97.7468 76.7877 97.9167 78.2891 98.4341C79.167 98.7365 80.0908 99.0567 80.9348 99.367V95.1905C83.0835 95.1905 83.9723 95.3931 84.7239 96.8693C85.1417 97.6897 86.1137 99.87 86.3172 100.744H91.1015C90.3298 99.2854 89.7196 96.3759 88.647 95.2527C88.0333 94.6099 87.6983 94.5377 87.1715 94.0798C90.4097 93.2151 90.7246 86.0199 88.844 83.5221C87.6165 81.8917 86.3473 81.6064 83.5832 81.6064C81.0928 81.6064 78.8346 81.6919 76.4068 81.6919V96.846H76.4068Z" fill="#0D47A1"/>
<path fill-rule="evenodd" clip-rule="evenodd" d="M157.831 86.3072L160.081 94.2409L155.604 94.2507L157.831 86.3072ZM148.857 100.745L153.98 100.744L154.769 97.8445L160.986 97.839L161.787 100.735L166.881 100.744L160.403 81.6868L155.347 81.692L148.857 100.745H148.857Z" fill="#0D47A1"/>
<path fill-rule="evenodd" clip-rule="evenodd" d="M40.0972 100.744H50.8619C50.8619 100.21 50.7326 99.4001 50.6705 98.7996C50.6332 98.4403 50.6755 96.9849 50.2638 96.9849H44.7106V81.6922H40.0972V100.744V100.744Z" fill="#E7162E"/>
<path fill-rule="evenodd" clip-rule="evenodd" d="M125.446 100.744H136.21L135.86 97.0708L130.059 97.0698V81.6917H125.446V100.744Z" fill="#0D47A1"/>
<path fill-rule="evenodd" clip-rule="evenodd" d="M137.492 100.744H148.257L147.887 97.073L142.106 97.0702V81.9485C142.106 81.7516 142.046 81.6922 141.85 81.6922H137.492V100.744V100.744Z" fill="#0D47A1"/>
<path fill-rule="evenodd" clip-rule="evenodd" d="M4.46891 80.2091C4.74016 80.7488 5.40224 81.4903 5.78951 81.9965C6.76517 83.2719 6.11779 82.9735 7.8027 82.9735C18.0712 82.9735 18.8926 94.4324 12.7023 97.3564C12.0755 97.6524 11.4686 97.8449 10.6631 97.9656C9.1902 98.1861 9.6493 97.6799 8.57138 98.5223C8.12495 98.8713 5.76596 100.543 5.66685 100.915C6.24436 100.952 6.80121 100.982 7.34063 101H9.33088C12.2012 100.884 14.62 100.183 17.1648 98.0597C19.2944 96.2829 19.9372 93.424 19.9369 89.8065C19.9365 86.5809 17.9717 83.8672 16.0533 82.4974C14.2151 81.1849 10.5739 79.8707 7.29006 80.0687L4.46891 80.2091Z" fill="#E7162E"/>
<path fill-rule="evenodd" clip-rule="evenodd" d="M64.2748 92.8122L68.9738 94.7066V92.9694C74.0382 92.9694 73.2506 93.4997 73.4287 91.2731C73.4703 90.752 73.5873 89.9202 73.5873 89.3812H68.9738V85.4513C70.5648 85.4513 72.1712 85.4295 73.7602 85.4533C75.1629 85.4744 74.7833 85.7969 74.7833 81.6922H64.2749V92.8123L64.2748 92.8122Z" fill="#0D47A1"/>
<path fill-rule="evenodd" clip-rule="evenodd" d="M119.38 100.744H123.993V81.6917H119.38V100.744Z" fill="#0D47A1"/>
<path fill-rule="evenodd" clip-rule="evenodd" d="M62.6513 98.0499L55.5169 98.0346L55.5131 81.6917H52.1429V100.744H62.9076L62.6513 98.0499Z" fill="#E7162E"/>
<path fill-rule="evenodd" clip-rule="evenodd" d="M1.05377 98.3515L1.0264 99.9051L0.455357 99.8785L0 100.815C1.81973 100.412 7.02986 97.1 8.4205 95.9791C9.7462 94.9105 10.6839 94.0507 11.8825 92.8626C12.4822 92.2682 14.5417 89.817 14.7229 89.0391L4.89741 94.6767L4.89979 83.9967C4.91305 82.8378 4.8997 83.0978 4.27859 82.4819C3.74401 81.9517 2.59818 80.6727 2.07865 80.3248C2.07865 83.3238 1.81956 86.5383 1.82228 89.5516C1.82406 91.566 1.75938 97.3324 1.05377 98.3514V98.3515Z" fill="#0D47A1"/>
<path fill-rule="evenodd" clip-rule="evenodd" d="M68.9738 94.7063L64.2748 92.8121V100.744H74.7832V96.9846H68.9738V94.7063Z" fill="#E7162E"/>
<path fill-rule="evenodd" clip-rule="evenodd" d="M62.6517 98.0499L62.5429 97.0722L56.7567 97.0698V81.6917H55.5134L55.5173 98.0346L62.6517 98.0499Z" fill="#0D47A1"/>
<path fill-rule="evenodd" clip-rule="evenodd" d="M8.57171 83.4859C10.6177 83.9625 11.5572 84.1088 12.8661 85.4283C14.3835 86.9578 14.8939 88.2055 14.8939 90.4914C14.8939 92.4567 13.912 93.8154 12.9078 94.8275C10.9651 96.7853 9.17879 96.5139 8.57171 96.899C17.515 96.899 18.3666 86.2927 11.5957 83.8792C11.1335 83.7144 9.10051 83.1502 8.57171 83.4859Z" fill="#FF7585"/>
<path fill-rule="evenodd" clip-rule="evenodd" d="M0.455321 99.8648L1.24652 99.8914L1.28443 98.3389L1.28401 80.7517H0.455321V99.8648Z" fill="#4F92FF"/>
<path fill-rule="evenodd" clip-rule="evenodd" d="M80.9348 99.3672C80.0908 99.057 79.167 98.7368 78.2891 98.4343C76.7877 97.917 77.2973 97.7471 76.4068 96.8462V100.744H80.9348V99.3671V99.3672Z" fill="#E7162E"/>
<path d="M110.646 0H56.2341C51.4854 0 47.6357 3.79341 47.6357 8.47281V55.8408C47.6357 60.5202 51.4854 64.3136 56.2341 64.3136H110.646C115.395 64.3136 119.244 60.5202 119.244 55.8408V8.47281C119.244 3.79341 115.395 0 110.646 0Z" fill="url(#paint0_linear_11_283)"/>
<path fill-rule="evenodd" clip-rule="evenodd" d="M73.0007 11.3192L70.3767 11.5742L70.4194 15.6864C70.415 17.2067 70.5114 27.6577 70.1737 28.2106C70.3377 29.1152 69.8714 33.205 69.7436 34.3591C69.5592 36.0215 68.9864 38.6454 68.9859 40.1602C69.6692 39.2748 70.7123 34.9108 70.9929 33.4506C71.4865 30.882 71.7345 28.4264 72.074 25.8036L72.6828 15.7832L72.7397 13.7717L87.7907 13.5688C88.5377 16.4484 87.5572 29.9282 87.0969 33.4206L86.1236 43.8986L86.2002 43.908L87.4838 39.3878L88.9893 31.4506C89.9022 24.5542 90.3152 17.4074 90.0181 10.2959L73.0008 11.3194L73.0007 11.3192Z" fill="#FFFEFE"/>
<path fill-rule="evenodd" clip-rule="evenodd" d="M87.2771 53.1065C87.429 52.9784 90.0251 52.1366 90.4832 51.942C91.4789 51.5189 92.5389 51.0163 93.3769 50.469C95.0502 49.5265 97.082 47.6821 98.0251 46.1818C98.695 45.303 99.6061 43.349 99.8136 41.9966L97.1796 45.1895L94.1197 47.7117C93.7973 48.1568 90.6048 49.7964 89.7642 49.9961C88.6896 50.7839 83.7303 51.5667 81.979 51.6441C79.0593 51.7732 76.108 51.4264 73.4748 50.6625C68.825 49.3133 63.9683 46.085 62.3615 42.7973C63.2126 42.1269 63.4553 42.3591 64.0242 41.1936C64.3571 40.5118 64.6179 39.6164 64.885 38.8935C62.7928 41.0817 60.3669 42.1257 56.4535 40.9038C56.8342 41.5635 57.482 42.2446 58.1549 42.6311C59.4499 43.3752 59.8488 42.9722 61.2033 43.0689C61.8964 44.3511 62.0854 45.0314 62.9007 46.1686C64.7793 48.7893 67.8804 50.9612 71.0497 52.2296C73.4066 53.173 75.9933 53.7814 78.8012 53.967C80.3194 54.0674 81.8267 54.0188 83.3211 53.8322C84.1963 53.723 86.8015 53.0893 87.2771 53.1065L87.2771 53.1065Z" fill="#FFFEFE"/>
<path fill-rule="evenodd" clip-rule="evenodd" d="M103.702 25.3305L103.4 25.8896L106.546 28.8024C106.155 29.5755 94.4055 40.8863 93.9181 40.9848L88.3926 45.7256L85.2235 48.1447L87.5558 47.1829L91.6566 44.5617L94.8622 42.2217C95.1746 41.8219 97.9916 39.7545 98.6292 39.2393C101.321 37.064 103.45 35.2762 106.012 32.9851C106.47 32.5755 109.477 29.6799 109.51 29.6663C110.021 28.9834 110.849 28.4911 110.175 27.7422C109.552 27.0513 105.444 23.4282 105.036 23.243L103.702 25.3305H103.702Z" fill="#FFFEFE"/>
<path fill-rule="evenodd" clip-rule="evenodd" d="M98.2531 18.4501L97.98 20.0114L101.942 22.1249L94.6826 33.7315C94.1862 34.7506 88.2779 43.389 87.8809 43.6208L86.3631 45.7356L87.477 44.6642L92.6406 39.4133C92.662 39.306 95.2191 36.5969 95.619 36.086C97.4592 33.7351 99.1058 31.0631 100.794 28.5527C101.313 27.7819 102.771 25.1542 103.253 24.6661L105.384 20.7866L105.304 20.7077L98.5577 16.8136L98.253 18.4501H98.2531Z" fill="#FFFEFE"/>
<path fill-rule="evenodd" clip-rule="evenodd" d="M90.6255 33.1612L88.179 40.2943L86.2915 44.9447L87.4129 43.1513C87.7537 42.3718 88.5411 41.2883 89.0013 40.464C89.9745 38.7211 90.9032 36.6385 91.7144 34.7508C92.0979 33.8581 92.5403 32.5721 92.9514 31.8082C93.6276 29.6078 94.7141 27.2033 95.4923 24.8915C95.8904 23.7092 96.2495 22.5217 96.6192 21.306C96.8504 20.5458 97.3535 18.2143 97.614 17.6978L98.2892 14.4992L98.2871 14.3999L93.7879 13.1934L91.298 12.699L91.0726 15.6387L95.3494 16.3387L95.4343 16.4045L90.6254 33.1612H90.6255Z" fill="#FFFEFE"/>
<path fill-rule="evenodd" clip-rule="evenodd" d="M75.6063 29.9769C75.5116 30.3096 74.07 31.4186 73.766 34.0858C73.5538 35.9468 74.0017 37.5766 74.8174 38.8655C74.5304 37.7563 74.3035 37.0336 74.3756 35.7351C74.4166 34.9979 74.7494 33.3092 75.1415 32.8722C75.6374 31.4811 77.3155 29.9436 79.1551 29.6878C81.3242 29.3862 83.314 30.8463 83.9535 31.9879C83.5892 30.2542 80.7772 27.6798 77.7129 28.6756C76.553 29.0525 76.3041 29.5721 75.6063 29.9769Z" fill="#FFFEFE"/>
<defs>
<linearGradient id="paint0_linear_11_283" x1="77.3996" y1="38.7955" x2="114.282" y2="3.57615" gradientUnits="userSpaceOnUse">
<stop stop-color="#FF1842"/>
<stop offset="0.478431" stop-color="#9F2D92"/>
<stop offset="1" stop-color="#3140EE"/>
</linearGradient>
</defs>
</svg>
