<svg width="28" height="28" viewBox="0 0 28 28" fill="none" xmlns="http://www.w3.org/2000/svg">
<circle cx="14" cy="14" r="13.0931" fill="#E9D52F" stroke="#D7A50F" stroke-width="1.81373"/>
<path d="M11.4071 13.6079C13.103 13.6079 14.4778 12.2331 14.4778 10.5373C14.4778 8.84138 13.103 7.4666 11.4071 7.4666C9.71126 7.4666 8.33648 8.84138 8.33648 10.5373C8.33648 12.2331 9.71126 13.6079 11.4071 13.6079Z" fill="#CE9319"/>
<path d="M5.78846 17.2376C5.66506 17.3865 5.59821 17.5741 5.59972 17.7675V19.4154H17.2145V17.7457C17.2167 17.5523 17.1497 17.3644 17.0258 17.2158C16.3213 16.431 15.4527 15.8108 14.4817 15.3993C13.5107 14.9878 12.461 14.7951 11.4071 14.8348C10.3516 14.7978 9.30082 14.9939 8.32968 15.4092C7.35855 15.8245 6.49089 16.4488 5.78846 17.2376Z" fill="#CE9319"/>
<path fill-rule="evenodd" clip-rule="evenodd" d="M22.3933 7.4666H15.4604L14.9403 8.62423C15.7068 8.60449 18.3006 8.35454 18.417 9.42666L15.4536 9.43982L14.9335 10.604L18.5812 10.6172C18.4991 11.8866 16.3707 11.6169 15.2277 11.6038C15.2209 11.959 15.173 12.7417 15.262 13.0442C15.8095 13.0376 16.9045 12.9916 17.3972 13.1034C17.9927 13.235 18.2459 13.6559 18.5059 14.0834C18.8002 14.5833 19.7721 16.5829 19.9568 16.7999L21.7842 16.7736C21.4009 16.0435 20.3743 13.9716 19.9774 13.3731C19.5462 12.7219 19.423 12.7351 19.1698 12.4194C19.8816 12.1234 20.2169 11.5446 20.4154 10.604H21.88L22.4001 9.42666H20.3606C20.3332 9.37404 20.0321 8.66368 20.0184 8.61764L21.88 8.61107L22.3933 7.4666Z" fill="#CE9319"/>
</svg>
