<svg width="54" height="43" viewBox="0 0 54 43" fill="none" xmlns="http://www.w3.org/2000/svg">
<path fill-rule="evenodd" clip-rule="evenodd" d="M9.0614 17.8306C8.63079 17.8465 8.19999 17.8625 7.76922 17.8684H7.76911C9.26838 10.1747 14.4627 4.70225 21.9416 2.50514C23.9194 1.92416 26.0064 1.75269 28.0576 1.92271C34.5074 2.45712 37.0502 4.68102 41.5085 9.02109C41.761 9.26695 42.044 9.51524 42.3511 9.69064C42.6995 9.88976 43.1351 9.89074 43.4749 9.67184C43.7909 9.46827 43.9592 9.09734 43.7742 8.74521C43.6516 8.51166 43.3967 8.21517 43.206 7.9934C43.1846 7.96852 43.1641 7.94459 43.1446 7.92179C42.9302 7.67091 42.7105 7.42507 42.4908 7.17909L42.4298 7.1108C39.9105 4.29007 36.6603 2.13826 33.0586 0.973696C29.2697 -0.251492 25.2463 -0.324729 21.4182 0.778223C15.0169 2.62257 9.59402 7.23142 7.14057 13.4675C6.59465 14.8551 6.16078 16.4062 5.82774 17.8684C4.35157 17.8643 2.87527 17.8643 1.39909 17.8643H1.33952C0.591411 17.8643 -0.378951 18.6445 0.152394 19.439C0.944028 20.6226 1.76387 21.7918 2.58218 22.9588C2.72943 23.1688 2.87664 23.3787 3.02362 23.5887C3.14509 23.7622 3.26702 23.9352 3.38892 24.1083C3.78691 24.6732 4.18463 25.2377 4.56513 25.8152C4.66093 25.9606 4.75296 26.1095 4.84489 26.2584C5.29906 26.9936 5.75109 27.7253 6.64579 28.0081L6.72637 28.0336L6.79967 27.9914C7.14843 27.7909 7.7007 27.0759 7.97202 26.7247C7.98206 26.7117 7.99172 26.6992 8.00096 26.6872C8.60022 25.9124 9.16911 25.1061 9.72828 24.302C10.3257 23.4428 10.9125 22.5763 11.4971 21.7084C11.6112 21.5389 11.7251 21.369 11.839 21.1992C12.1497 20.7359 12.4606 20.2723 12.7777 19.8141L12.7825 19.8069C13.0367 19.4015 13.092 18.9076 12.8232 18.4959C12.5048 18.0084 11.8766 17.838 11.3278 17.8079C10.7214 17.7745 10.1031 17.794 9.49637 17.8149C9.3514 17.8198 9.20641 17.8252 9.0614 17.8306ZM40.9446 25.0867L45.4875 25.1497H45.4876C45.1641 28.7596 43.2679 32.1069 40.8153 34.7087C38.2574 37.4221 34.8418 39.6011 31.2343 40.5732C28.2418 41.3797 25.1243 41.362 22.1268 40.5918C19.2296 39.8475 16.5129 38.4174 14.2397 36.4756C13.68 35.9975 13.1495 35.4933 12.6506 34.9521C12.4879 34.7756 12.331 34.5945 12.1743 34.4135C12.0293 34.2462 11.8844 34.079 11.7352 33.9156C11.1991 33.3289 10.8146 33.1237 10.0046 33.2506L9.86868 33.2719L9.84491 33.4073C9.67871 34.353 10.5492 35.4586 11.1406 36.1124C11.8359 36.881 12.6629 37.6015 13.4898 38.2254C16.073 40.1745 18.9889 41.6994 22.1449 42.463C25.4674 43.2669 28.8329 43.1638 32.1068 42.1821C40.5294 39.6565 45.5431 33.7026 47.3589 25.2115C47.8089 25.158 48.275 25.1575 48.7256 25.1674C48.9871 25.1732 49.2648 25.1859 49.5511 25.1991C50.6083 25.2478 51.7829 25.3019 52.6934 25.0254C53.9479 24.6447 53.452 24.0005 52.8706 23.2451C52.8047 23.1596 52.7378 23.0725 52.6721 22.9843C52.3555 22.5589 52.0514 22.1225 51.7511 21.6854C51.4712 21.2778 51.1965 20.8667 50.9219 20.4558C50.6626 20.0678 50.4033 19.6799 50.1397 19.295C49.7125 18.671 49.2957 18.0408 48.8799 17.4092C48.8436 17.354 48.8073 17.2987 48.771 17.2434C48.5132 16.8512 48.2541 16.4567 47.9802 16.0766C47.9732 16.0668 47.966 16.0568 47.9587 16.0467C47.6653 15.6388 47.1705 14.9507 46.61 15.0151C46.0897 15.0748 45.582 15.8121 45.287 16.2405C45.2713 16.2634 45.2561 16.2854 45.2415 16.3064C45.0059 16.6469 44.7775 16.9931 44.5492 17.3391C44.4643 17.4677 44.3796 17.5962 44.2944 17.7243C43.8601 18.3783 43.4196 19.0272 42.9659 19.6679C42.682 20.069 42.4094 20.4773 42.1367 20.8856C41.8741 21.2789 41.6115 21.6721 41.3389 22.0588C41.2209 22.2262 41.0935 22.3887 40.9659 22.5514C40.703 22.8868 40.4392 23.2233 40.2544 23.607C39.904 24.3343 40.112 24.869 40.9219 25.0808L40.9446 25.0867ZM3.16754 20.616C2.97526 20.3235 2.77628 20.0208 2.59629 19.7174L2.59623 19.7173L10.6286 19.6847C10.4 20.1132 10.1007 20.5489 9.83716 20.9326C9.60151 21.2758 9.35924 21.6138 9.11693 21.9518C8.98699 22.1331 8.85703 22.3144 8.72807 22.4965C8.02416 23.4906 7.33234 24.49 6.6654 25.5089C6.60188 25.4386 6.54062 25.3645 6.48461 25.2968L6.47276 25.2824C6.28805 25.0591 6.11086 24.8284 5.93656 24.5969C5.47272 23.9809 5.0252 23.3498 4.58514 22.7166C4.13508 22.069 3.69184 21.4156 3.25953 20.7561C3.22911 20.7097 3.19841 20.663 3.16754 20.616ZM42.7462 23.3492L46.6897 17.5451C47.0185 18.0057 47.3514 18.4637 47.6843 18.9216C48.0685 19.4502 48.4528 19.9788 48.8309 20.5117C49.2456 21.0961 49.657 21.6847 50.0512 22.2831C50.2723 22.6189 50.5095 22.9793 50.709 23.3411L42.7462 23.3492ZM34.5553 11.032C31.6601 8.79664 28.1073 7.91062 24.506 8.60383C21.2505 9.23051 18.216 10.9502 16.1584 13.5694C13.8599 16.4952 13.1254 20.0699 13.6984 23.7134C14.2128 26.9841 16.0746 29.9611 18.7004 31.9584C21.6373 34.1924 25.2432 35.0225 28.8753 34.4343C32.1448 33.9048 35.1303 32.0566 37.1345 29.4301C39.3744 26.4946 40.1917 22.8951 39.593 19.2637C39.0591 16.0249 37.1395 13.0273 34.5553 11.032ZM19.2593 30.2912C17.0296 28.3986 15.5346 25.6844 15.2118 22.7713C14.8651 19.6408 15.7843 16.5882 17.8246 14.1868C19.7223 11.9533 22.443 10.4629 25.3585 10.1246C26.9719 9.93742 28.596 10.0792 30.1444 10.5742C31.5904 11.0364 32.9238 11.7908 34.0746 12.7798C36.3364 14.7236 37.822 17.5113 38.0984 20.4876C38.3871 23.596 37.4341 26.59 35.3866 28.9472C33.473 31.1501 30.7561 32.6013 27.8509 32.9169C24.7192 33.2572 21.6615 32.3304 19.2593 30.2912Z" fill="white"/>
<path d="M31.333 16.3943C31.1709 17.2784 29.8499 17.0132 29.1021 17.0006L29.7501 18.5287C30.4605 18.5792 31.3703 18.4403 31.3454 19.3496C31.3329 20.2589 30.5353 20.1074 29.7128 20.1579C29.4635 21.2819 28.9027 21.9765 28.1923 22.5449C27.3074 23.2521 26.3353 23.2774 25.0391 23.2774L28.4789 26.2958C29.0522 26.7505 29.289 26.7505 29.0398 27.7356C27.7311 28.3923 26.9833 27.0031 25.1513 25.5002L25.1025 25.4594C24.4905 24.9488 24.0126 24.55 23.3691 23.9594C22.9328 23.5552 21.7738 23.0122 22.2848 22.0018C23.4937 20.9157 27.1828 22.9616 28.0676 20.1326L24.7525 20.1326C23.6682 20.1326 22.0854 20.4863 22.0854 19.3496C22.0854 18.2382 23.556 18.5666 24.6154 18.5666L28.0676 18.5666C27.0083 15.485 22.2349 18.213 22.0978 16.2807C22.023 15.2198 23.1946 15.4219 24.067 15.4345C25.8991 15.4345 27.7436 15.4471 29.5632 15.4345C30.3359 15.4219 31.5324 15.2577 31.333 16.3943Z" fill="#44FAA2"/>
</svg>
