<svg width="27" height="27" viewBox="0 0 27 27" fill="none" xmlns="http://www.w3.org/2000/svg">
<g clip-path="url(#clip0_10_1724)">
<path d="M18.7332 4.00151C19.06 4.0019 19.3742 4.13652 19.6118 4.37787C19.8494 4.61922 19.9923 4.94908 20.0115 5.30006C20.0306 5.65103 19.9245 5.99663 19.7148 6.26623C19.5051 6.53584 19.2076 6.70911 18.8832 6.75063L18.7332 6.76029H5.27373C5.11357 6.75997 4.9591 6.82419 4.84074 6.94031C4.72238 7.05643 4.64871 7.21602 4.63424 7.38766C4.61977 7.55931 4.66554 7.73056 4.76255 7.8677C4.85956 8.00485 5.00076 8.09794 5.15836 8.12864L5.27373 8.13968H22.5788C23.2256 8.13946 23.8486 8.40232 24.3228 8.87558C24.7971 9.34883 25.0876 9.9975 25.1361 10.6916L25.1425 10.8985V23.313C25.1427 24.009 24.8985 24.6794 24.4587 25.1897C24.0189 25.7 23.4161 26.0127 22.7711 26.0649L22.5788 26.0718H4.6328C3.98601 26.072 3.36304 25.8091 2.88877 25.3359C2.41451 24.8626 2.124 24.2139 2.0755 23.5199L2.06909 23.313V7.44998C2.06896 6.57446 2.37831 5.73166 2.93439 5.09254C3.49047 4.45342 4.25164 4.06584 5.06351 4.0084L5.27373 4.00151H18.7332ZM4.63733 10.5944L4.68211 23.6176H23.0718L23.0271 10.6634H5.27826C5.13212 10.6634 4.98727 10.6523 4.84627 10.633L4.63733 10.5944ZM18.0923 15.0366C18.6023 15.0366 19.0913 15.2546 19.4519 15.6427C19.8125 16.0307 20.0151 16.557 20.0151 17.1057C20.0151 17.6545 19.8125 18.1808 19.4519 18.5688C19.0913 18.9568 18.6023 19.1748 18.0923 19.1748C17.5824 19.1748 17.0933 18.9568 16.7327 18.5688C16.3721 18.1808 16.1695 17.6545 16.1695 17.1057C16.1695 16.557 16.3721 16.0307 16.7327 15.6427C17.0933 15.2546 17.5824 15.0366 18.0923 15.0366Z" fill="white"/>
</g>
<defs>
<clipPath id="clip0_10_1724">
<rect width="26.9139" height="26.9139" fill="white" transform="scale(1.00319)"/>
</clipPath>
</defs>
</svg>
