<svg width="25" height="25" viewBox="0 0 25 25" fill="none" xmlns="http://www.w3.org/2000/svg">
<path d="M12.5003 9.375C13.3291 9.375 14.124 9.70424 14.71 10.2903C15.2961 10.8763 15.6253 11.6712 15.6253 12.5C15.6253 13.3288 15.2961 14.1237 14.71 14.7097C14.124 15.2958 13.3291 15.625 12.5003 15.625C11.6715 15.625 10.8767 15.2958 10.2906 14.7097C9.70457 14.1237 9.37533 13.3288 9.37533 12.5C9.37533 11.6712 9.70457 10.8763 10.2906 10.2903C10.8767 9.70424 11.6715 9.375 12.5003 9.375ZM12.5003 4.6875C17.7087 4.6875 22.1566 7.92708 23.9587 12.5C22.1566 17.0729 17.7087 20.3125 12.5003 20.3125C7.29199 20.3125 2.84408 17.0729 1.04199 12.5C2.84408 7.92708 7.29199 4.6875 12.5003 4.6875ZM3.31283 12.5C4.15476 14.2191 5.4621 15.6674 7.08624 16.6805C8.71038 17.6935 10.5862 18.2305 12.5003 18.2305C14.4145 18.2305 16.2903 17.6935 17.9144 16.6805C19.5385 15.6674 20.8459 14.2191 21.6878 12.5C20.8459 10.7809 19.5385 9.33255 17.9144 8.31953C16.2903 7.3065 14.4145 6.76946 12.5003 6.76946C10.5862 6.76946 8.71038 7.3065 7.08624 8.31953C5.4621 9.33255 4.15476 10.7809 3.31283 12.5Z" fill="black"/>
</svg>
