<svg width="24" height="22" viewBox="0 0 24 22" fill="none" xmlns="http://www.w3.org/2000/svg">
<path d="M0.497704 10.7303L11.4022 0.238941C11.4807 0.163197 11.574 0.103106 11.6766 0.0621049C11.7793 0.0211043 11.8893 0 12.0005 0C12.1116 0 12.2217 0.0211043 12.3244 0.0621049C12.427 0.103106 12.5203 0.163197 12.5988 0.238941L23.5033 10.7303M0.497704 10.7303C0.180021 11.0362 0 11.4517 0 11.885C0 12.7848 0.759793 13.5163 1.69431 13.5163H1.79327H2.84327V14.5663V21.0025C2.84327 21.4537 3.22184 21.8182 3.69042 21.8182H9.25618V20.7682M0.497704 10.7303L1.22597 11.4867M0.497704 10.7303L1.2257 11.487L1.22597 11.4867M9.25618 20.7682H10.3062V17.1586V16.1086H11.3562H12.2212H13.2712V17.1586V20.7682H14.3212M9.25618 20.7682V16.1086V15.0586H10.3062H13.2712H14.3212V16.1086V20.7682M9.25618 20.7682H3.89327M14.3212 20.7682V21.8182H20.3106C20.7792 21.8182 21.1577 21.4537 21.1577 21.0025V14.5663V13.5163H22.2077H22.3067C22.7567 13.5163 23.1883 13.3455 23.5059 13.0371C24.1651 12.3999 24.1651 11.3676 23.5033 10.7303M14.3212 20.7682H20.1077M23.5033 10.7303L22.775 11.4867M23.5033 10.7303L22.7753 11.487L22.775 11.4867M22.775 11.4867L12.0005 1.12037M22.775 11.4867C23.0082 11.7112 23.0081 12.058 22.7762 12.2822L22.7745 12.2838C22.6593 12.3956 22.4928 12.4663 22.3067 12.4663H21.1577H20.1077V13.5163V20.7682M20.1077 20.7682H20.3106C20.2371 20.7682 20.1077 20.8366 20.1077 21.0025V20.7682ZM3.89327 20.7682V13.5163V12.4663H2.84327H1.69431C1.30184 12.4663 1.05 12.1677 1.05 11.885C1.05 11.7451 1.10801 11.6003 1.22597 11.4867M3.89327 20.7682H3.69042C3.76389 20.7682 3.89327 20.8366 3.89327 21.0025V20.7682ZM1.22597 11.4867L12.0005 1.12037M12.0005 1.12037L11.8708 0.995597C11.8912 1.01506 11.9133 1.0286 11.9349 1.03722C11.9568 1.04596 11.979 1.05 12.0005 1.05C12.022 1.05 12.0442 1.04596 12.0661 1.03722C12.0876 1.0286 12.1097 1.01507 12.1302 0.995598L12.0005 1.12037Z" stroke="#000DA4" stroke-width="2.1"/>
</svg>
