<svg width="34" height="34" viewBox="0 0 34 34" fill="none" xmlns="http://www.w3.org/2000/svg">
<g clip-path="url(#clip0_82_255)">
<path d="M34 17C34 21.5087 32.2089 25.8327 29.0208 29.0208C25.8327 32.2089 21.5087 34 17 34C12.4913 34 8.1673 32.2089 4.97919 29.0208C1.79107 25.8327 0 21.5087 0 17C0 12.4913 1.79107 8.1673 4.97919 4.97919C8.1673 1.79107 12.4913 0 17 0C21.5087 0 25.8327 1.79107 29.0208 4.97919C32.2089 8.1673 34 12.4913 34 17ZM17 8.5C16.7314 8.50015 16.4658 8.55656 16.2204 8.6656C15.9749 8.77463 15.755 8.93387 15.5749 9.13306C15.3947 9.33225 15.2582 9.56697 15.1743 9.8221C15.0904 10.0772 15.0608 10.3471 15.0875 10.6144L15.8312 18.0667C15.8562 18.3595 15.9902 18.6322 16.2066 18.831C16.423 19.0297 16.7062 19.14 17 19.14C17.2938 19.14 17.577 19.0297 17.7934 18.831C18.0098 18.6322 18.1438 18.3595 18.1688 18.0667L18.9125 10.6144C18.9392 10.3471 18.9096 10.0772 18.8257 9.8221C18.7418 9.56697 18.6053 9.33225 18.4251 9.13306C18.245 8.93387 18.0251 8.77463 17.7796 8.6656C17.5342 8.55656 17.2686 8.50015 17 8.5ZM17.0042 21.25C16.4407 21.25 15.9002 21.4739 15.5016 21.8724C15.1031 22.2709 14.8792 22.8114 14.8792 23.375C14.8792 23.9386 15.1031 24.4791 15.5016 24.8776C15.9002 25.2761 16.4407 25.5 17.0042 25.5C17.5678 25.5 18.1083 25.2761 18.5069 24.8776C18.9054 24.4791 19.1292 23.9386 19.1292 23.375C19.1292 22.8114 18.9054 22.2709 18.5069 21.8724C18.1083 21.4739 17.5678 21.25 17.0042 21.25Z" fill="white"/>
</g>
<defs>
<clipPath id="clip0_82_255">
<rect width="34" height="34" fill="white"/>
</clipPath>
</defs>
</svg>
