<svg width="62" height="54" viewBox="0 0 62 54" fill="none" xmlns="http://www.w3.org/2000/svg">
<path d="M48.25 32.3393C48.25 41.8663 40.5269 49.5894 31 49.5894C21.4731 49.5894 13.75 41.8663 13.75 32.3393C13.75 22.8124 21.4731 15.0894 31 15.0894C40.5269 15.0894 48.25 22.8124 48.25 32.3393Z" fill="white" stroke="#0D47A1" stroke-width="1.5"/>
<path fill-rule="evenodd" clip-rule="evenodd" d="M27.5787 33.1018C28.3443 32.9791 31.8764 33.0079 32.7143 33.0946C34.3034 33.2535 35.228 34.0625 35.2496 35.7383C35.2785 37.4357 34.2673 38.2014 32.6565 38.3459C31.9487 38.4036 28.1204 38.4398 27.5714 38.3242L27.5787 33.1018ZM23.3531 41.6757C25.9896 41.6685 30.9519 41.7841 33.2777 41.6613C36.297 41.4951 38.5651 40.1372 39.2874 37.7536C39.6847 36.4317 39.5474 34.7921 38.984 33.6075C36.8315 29.0641 30.4679 30.4798 27.5714 30.1476L27.5353 22.3394H23.3242L23.3531 41.6757Z" fill="#F47921"/>
<path fill-rule="evenodd" clip-rule="evenodd" d="M28.1631 25.6186L31.6446 25.6475C33.0243 25.6619 34.2233 26.0086 34.4328 27.4316C34.5411 28.1611 34.44 28.8112 33.9922 29.3602L33.7971 29.6563C35.0973 29.8586 35.8413 30.2414 36.9248 30.5953C39.2867 29.0857 38.94 24.8529 37.1126 23.56C35.7474 22.5921 34.8228 22.491 33.241 22.3682H28.1775L28.1631 25.6186Z" fill="#FCB935"/>
</svg>
