<svg width="27" height="27" viewBox="0 0 27 27" fill="none" xmlns="http://www.w3.org/2000/svg">
<path d="M22.8071 21.8797C22.3156 21.0064 21.585 18.5354 21.585 15.308C21.585 13.3698 20.8386 11.511 19.51 10.1405C18.1814 8.76995 16.3794 8 14.5004 8C12.6215 8 10.8195 8.76995 9.4909 10.1405C8.16229 11.511 7.41589 13.3698 7.41589 15.308C7.41589 18.5363 6.6844 21.0064 6.19291 21.8797C6.0674 22.1018 6.00086 22.354 6.00001 22.611C5.99915 22.868 6.06401 23.1207 6.18804 23.3436C6.31207 23.5665 6.49089 23.7517 6.70646 23.8806C6.92203 24.0095 7.16673 24.0774 7.41589 24.0776H11.0299C11.1933 24.9027 11.628 25.6441 12.2604 26.1766C12.8928 26.7091 13.6841 27 14.5004 27C15.3168 27 16.1081 26.7091 16.7405 26.1766C17.3729 25.6441 17.8075 24.9027 17.971 24.0776H21.585C21.8341 24.0773 22.0787 24.0092 22.2941 23.8803C22.5096 23.7513 22.6883 23.5661 22.8122 23.3432C22.9361 23.1203 23.0009 22.8677 23 22.6108C22.9991 22.3538 22.9326 22.1017 22.8071 21.8797ZM14.5004 25.5392C14.061 25.5391 13.6325 25.3985 13.2737 25.1367C12.915 24.875 12.6438 24.505 12.4973 24.0776H16.5036C16.3571 24.505 16.0859 24.875 15.7271 25.1367C15.3684 25.3985 14.9398 25.5391 14.5004 25.5392ZM7.41589 22.616C8.09777 21.4065 8.8328 18.6039 8.8328 15.308C8.8328 13.7574 9.42992 12.2704 10.4928 11.174C11.5557 10.0776 12.9973 9.4616 14.5004 9.4616C16.0036 9.4616 17.4452 10.0776 18.5081 11.174C19.571 12.2704 20.1681 13.7574 20.1681 15.308C20.1681 18.6012 20.9013 21.4038 21.585 22.616H7.41589Z" fill="white"/>
</svg>
