<svg width="19" height="19" viewBox="0 0 19 19" fill="none" xmlns="http://www.w3.org/2000/svg">
<circle cx="9.14488" cy="9.50005" r="8.30028" fill="white" stroke="#6E16FF" stroke-width="1.27697"/>
<path d="M13.3033 5.45052C13.1696 6.17017 12.0799 5.95428 11.463 5.944L11.9976 7.18796C12.5836 7.22909 13.3341 7.116 13.3135 7.85621C13.3033 8.59642 12.6453 8.47305 11.9668 8.51417C11.7612 9.42915 11.2985 9.99459 10.7125 10.4572C9.98259 11.0329 9.1807 11.0535 8.11151 11.0535L10.949 13.5106C11.4219 13.8807 11.6172 13.8807 11.4116 14.6826C10.3321 15.2172 9.71529 14.0863 8.20403 12.8629L8.1638 12.8298C7.65899 12.4141 7.26475 12.0894 6.7339 11.6087C6.37407 11.2797 5.41797 10.8376 5.83948 10.0152C6.83671 9.13101 9.87979 10.7965 10.6097 8.49361L7.87506 8.49361C6.98064 8.49361 5.67499 8.78147 5.67499 7.85621C5.67499 6.95151 6.88811 7.2188 7.76197 7.2188L10.6097 7.2188C9.73587 4.71032 5.79835 6.93094 5.68526 5.358C5.62358 4.49442 6.58997 4.65891 7.30961 4.66919C8.82088 4.66919 10.3424 4.67947 11.8434 4.66919C12.4808 4.65891 13.4678 4.52526 13.3033 5.45052Z" fill="#6E16FF"/>
</svg>
