<svg width="34" height="28" viewBox="0 0 34 28" fill="none" xmlns="http://www.w3.org/2000/svg">
<path fill-rule="evenodd" clip-rule="evenodd" d="M33.9556 13.0355H33.9551C33.906 13.3159 33.8179 13.5941 33.6851 13.8617L27.8438 25.6973C27.1084 27.1881 25.3139 27.794 23.8448 27.0472L5.17206 17.561C3.70264 16.815 3.10545 14.9944 3.84154 13.5039L9.68334 1.66831C9.81453 1.40236 9.97956 1.16598 10.1702 0.9589L10.1697 0.958395L10.1702 0.957637C10.4217 0.685684 10.7172 0.466732 11.0395 0.307123L11.0413 0.306112L11.0418 0.305607L11.048 0.302829L11.052 0.301062L11.1406 0.258635L11.1433 0.25813C11.4254 0.132106 11.7261 0.0505382 12.0332 0.0172024L12.0355 0.0166973V0.0172024C12.5836 -0.0421404 13.1542 0.0505428 13.6821 0.31874L32.3555 9.80493C32.882 10.0719 33.2957 10.4775 33.5767 10.956H33.5772L33.5782 10.9593C33.7303 11.2189 33.843 11.4995 33.9137 11.7914L33.9155 11.7947L33.916 11.7957L33.9165 11.798L33.9182 11.8066L33.9192 11.8116L33.9222 11.8253C33.9262 11.8432 33.9301 11.8609 33.9337 11.8791L33.9449 11.9311L33.9466 11.9374L33.9483 11.947V11.9515C34.0141 12.3043 34.018 12.6698 33.9556 13.0319V13.0355ZM31.4967 13.5746L26.4009 23.8993L23.585 15.3118L31.4967 13.5746ZM17.0349 15.9063C17.1375 16.1298 17.3082 16.3013 17.5129 16.4054C17.7192 16.5099 17.9612 16.5463 18.1999 16.493L21.536 15.7609L24.5849 25.0576L6.64628 15.9451L15.6564 12.9046L17.0349 15.9063ZM31.0557 11.5093L18.5732 14.2484L13.1335 2.40436L31.0557 11.5093ZM14.7708 10.9752L5.95187 13.9519L11.2279 3.26191L14.7708 10.9752Z" fill="#3342F0"/>
<path d="M7.26057 23.4442H1.04222C0.466709 23.4442 0 22.9707 0 22.3869C0 21.803 0.466735 21.3295 1.04222 21.3295H7.26038C7.8359 21.3295 8.30261 21.803 8.30261 22.3869C8.30261 22.9707 7.83612 23.4442 7.26057 23.4442Z" fill="#3342F0"/>
<path d="M1.04232 27.4616H12.3874C12.9634 27.4616 13.4296 26.9881 13.4301 26.4043C13.4301 25.8204 12.9634 25.3469 12.3879 25.3469H1.04232C0.466828 25.3469 9.33472e-05 25.8204 9.33472e-05 26.4043C9.33472e-05 26.9881 0.466803 27.4616 1.04232 27.4616Z" fill="#3342F0"/>
</svg>
