<svg width="19" height="11" viewBox="0 0 19 11" fill="none" xmlns="http://www.w3.org/2000/svg">
<path fill-rule="evenodd" clip-rule="evenodd" d="M0.974361 0C0.715944 0 0.468112 0.0941013 0.285384 0.261602C0.102656 0.429103 0 0.656282 0 0.893164C0 1.13005 0.102656 1.35723 0.285384 1.52473C0.468112 1.69223 0.715944 1.78633 0.974361 1.78633H18.0257C18.2841 1.78633 18.5319 1.69223 18.7146 1.52473C18.8974 1.35723 19 1.13005 19 0.893164C19 0.656282 18.8974 0.429103 18.7146 0.261602C18.5319 0.0941013 18.2841 9.98382e-09 18.0257 0H0.974361ZM0.974361 4.46582C0.846406 4.46582 0.719704 4.48892 0.601489 4.53381C0.483274 4.57869 0.375862 4.64448 0.285384 4.72742C0.194907 4.81036 0.123136 4.90882 0.0741699 5.01718C0.0252037 5.12555 0 5.24169 0 5.35898C0 5.47628 0.0252037 5.59242 0.0741699 5.70078C0.123136 5.80915 0.194907 5.90761 0.285384 5.99055C0.375862 6.07348 0.483274 6.13927 0.601489 6.18416C0.719704 6.22904 0.846406 6.25215 0.974361 6.25215H18.0257C18.2841 6.25215 18.5319 6.15805 18.7146 5.99055C18.8974 5.82304 19 5.59586 19 5.35898C19 5.1221 18.8974 4.89492 18.7146 4.72742C18.5319 4.55992 18.2841 4.46582 18.0257 4.46582H0.974361ZM0 9.8248C0 9.33356 0.438462 8.93164 0.974361 8.93164H18.0257C18.2841 8.93164 18.5319 9.02574 18.7146 9.19324C18.8974 9.36074 19 9.58792 19 9.8248C19 10.0617 18.8974 10.2889 18.7146 10.4564C18.5319 10.6239 18.2841 10.718 18.0257 10.718H0.974361C0.846406 10.718 0.719704 10.6949 0.601489 10.65C0.483274 10.6051 0.375862 10.5393 0.285384 10.4564C0.194907 10.3734 0.123136 10.275 0.0741699 10.1666C0.0252037 10.0582 0 9.94209 0 9.8248Z" fill="white"/>
</svg>
