<svg width="61" height="54" viewBox="0 0 61 54" fill="none" xmlns="http://www.w3.org/2000/svg">
<path fill-rule="evenodd" clip-rule="evenodd" d="M9.61254 39.0415C10.1925 38.8889 14.954 39.011 15.9815 39.011H47.7757C51.4486 39.011 51.0314 38.4514 51.0314 42.0937L51.0416 46.9061C51.0416 47.425 50.9399 47.7912 50.5024 47.9032C50.0751 48.0151 14.079 47.9337 12.3392 47.9337C8.6867 47.9337 9.07331 48.4933 9.07331 44.8713V40.0488C9.07331 39.4688 9.11401 39.1839 9.61254 39.0415ZM12.5936 43.7012C12.6953 44.332 13.3363 44.8916 14.0993 44.7797C14.7912 44.6881 15.3202 44.0472 15.2185 43.2841C15.0048 41.6257 12.3189 41.8597 12.5936 43.7012ZM21.2924 43.7012C21.384 44.332 22.0352 44.9018 22.8084 44.7797C23.4799 44.6881 24.0191 44.0675 23.9174 43.2942C23.6935 41.6155 21.0177 41.8597 21.2924 43.7012ZM16.9379 43.7012C17.2228 45.3596 19.807 45.0341 19.5628 43.2638C19.3187 41.5342 16.653 41.9513 16.9379 43.7012ZM38.3239 42.4397C39.7381 42.1344 40.0332 44.2099 38.7513 44.505C37.4083 44.8 36.869 42.7449 38.3239 42.4397ZM41.0201 43.8844C41.2948 42.3888 40.1655 41.1882 38.9649 40.9746C37.4286 40.6999 36.2586 41.7783 36.0144 42.9992C35.3938 46.2651 40.3893 47.2825 41.0201 43.8844ZM44.8557 42.4295C45.456 42.3379 45.9444 42.7856 46.0359 43.2739C46.1478 43.9047 45.7002 44.4236 45.1813 44.5152C43.8078 44.739 43.4212 42.6533 44.8557 42.4295ZM42.4852 43.8844C42.6785 45.1256 43.9095 46.2142 45.4255 45.97C46.6464 45.7666 47.7554 44.566 47.501 43.0501C46.9618 39.8147 41.9764 40.5167 42.4852 43.8844ZM11.0471 33.7001C11.0573 33.9646 11.0064 34.1274 11.0267 34.3716C11.0369 34.6361 11.0471 34.748 11.0369 35.0227L11.0471 37.5357C10.1823 37.5255 9.37854 37.434 8.6867 37.8307C7.22162 38.6752 7.59806 40.4353 7.59806 42.1548C7.59806 43.0094 7.54719 46.9875 7.61841 47.486C7.70998 48.2389 8.20851 48.8494 8.70704 49.1241C9.38871 49.5005 10.2332 49.4089 11.098 49.4089C12.0136 49.4089 12.9293 49.3987 13.845 49.4191C13.8552 50.2635 13.7839 51.108 14.6894 51.1487C15.6458 51.1894 15.6255 50.2839 15.6153 49.4293L44.4895 49.4089C44.4895 50.0906 44.4081 50.7112 44.8761 50.9758C45.2423 51.2912 45.9749 51.1792 46.2292 50.5179C46.2903 50.1822 46.2292 49.938 46.2598 49.6226L46.3411 49.4293L50.6143 49.2766C50.889 49.2766 51.1535 49.4293 51.764 48.8493C52.1302 48.5034 52.4558 48.1168 52.5067 47.3843C52.6084 46.0616 52.5168 44.3219 52.5168 42.9585C52.5168 41.8801 52.6796 39.5604 52.2828 38.7566C51.6724 37.5256 50.7059 37.5255 49.0576 37.5357C49.0678 36.3148 49.0576 35.0939 49.0576 33.8832C49.0678 32.6928 48.844 31.9807 47.328 31.9603C47.2365 29.5389 47.328 26.9343 47.328 24.4925C47.328 23.2411 47.328 21.9795 47.328 20.728C47.328 19.6191 47.6434 17.8895 46.4734 17.8488C45.2118 17.8081 45.5476 19.6598 45.5476 20.667C45.5476 21.9184 45.5476 23.18 45.5476 24.4314C45.5476 26.8936 45.6391 29.5083 45.5476 31.9501C44.1435 32.0315 43.8078 32.4486 43.8078 33.8832C43.818 35.0736 43.8485 36.3352 43.8078 37.5154L16.2969 37.5357C16.2969 36.3046 16.2969 35.0939 16.2969 33.8832C16.2969 32.5402 15.9205 31.9807 14.5673 31.9603C14.4249 27.7889 14.6386 23.0986 14.5572 18.8763C14.547 18.2862 14.2723 17.859 13.6924 17.8488C12.4613 17.8285 12.7869 19.558 12.7869 20.667C12.7869 21.9184 12.7869 23.18 12.7869 24.4314C12.7869 26.8732 12.8886 29.5592 12.7767 31.9603C11.566 31.9501 11.0166 32.4792 11.0471 33.7001ZM45.283 33.4356L47.5824 33.4457V37.5255H45.2932L45.283 33.4356ZM12.5223 33.4457L14.8217 33.4356V37.5357L12.5223 37.5255V33.4457Z" fill="#0D47A1"/>
<path fill-rule="evenodd" clip-rule="evenodd" d="M30.1318 31.7325C30.7321 31.6409 31.2204 32.0886 31.312 32.5872C31.4137 33.2078 30.9763 33.7368 30.4472 33.8182C29.0737 34.0421 28.6972 31.9563 30.1318 31.7325ZM27.7612 33.1874C27.9545 34.4388 29.1856 35.5275 30.6914 35.2731C31.9224 35.0798 33.0213 33.8793 32.7669 32.3532C32.2277 29.128 27.2525 29.8198 27.7612 33.1874ZM29.2772 26.9608C27.9444 27.0829 26.754 27.4085 25.7061 27.9376C25.1872 28.2021 24.7497 28.4768 24.3325 28.782C23.6611 29.2602 23.7323 29.9317 24.2206 30.2573C24.9328 30.7355 25.4415 29.7893 27.222 29.0872C28.4022 28.6192 29.8571 28.4462 31.2306 28.609C34.6084 29.0058 35.1273 30.6947 36.0735 30.3386C36.7246 30.0945 36.6941 29.2297 36.2668 28.8939C34.6288 27.6018 32.0038 26.6963 29.2772 26.9608ZM29.0839 23.5932C26.3877 23.8069 24.2918 24.5801 22.1858 25.9638C21.9111 26.1469 21.4838 26.4216 21.3719 26.6862C21.1073 27.3068 21.6568 28.3649 22.8268 27.4594C23.6611 26.8184 24.8209 26.208 25.8383 25.8519C27.4967 25.272 29.3687 24.9871 31.2815 25.1499C33.0518 25.2923 34.7305 25.7705 36.1142 26.5132C37.1418 27.0626 37.5894 27.5001 37.9964 27.7138C38.8816 28.1919 39.665 26.9507 38.7289 26.2995C35.809 24.2749 32.8483 23.288 29.0839 23.5932ZM28.6464 20.4087C26.2453 20.6122 23.9968 21.1616 22.0637 22.0773C21.3617 22.4028 18.6452 23.8374 18.3502 24.4783C18.0856 25.0481 18.6147 26.1367 19.7644 25.2618L21.6364 24.051C24.6683 22.3825 28.1987 21.6601 31.7698 21.9552C35.0561 22.2197 38.2813 23.3898 40.7231 25.2923C41.7405 26.0757 43.0224 24.9566 41.4658 23.8781C39.9193 22.7996 38.1388 21.7721 35.9616 21.1616C33.6317 20.5207 31.2306 20.1849 28.6464 20.4087Z" fill="#5CB1FF"/>
</svg>
